<?xml version="1.0" encoding="UTF-8"?>
<svg id="Layer_1" data-name="Layer 1" xmlns="http://www.w3.org/2000/svg" viewBox="0 0 100 100">
  <defs>
    <style>
      .cls-1 {
        fill: #ffa14a;
      }
    </style>
  </defs>
  <path class="cls-1" d="M65.16,32.95l28.32,2.71c3.59,1.14,4.74,5.44,2.26,8.32l-20.66,18.3c-.17.44-.03.85.02,1.28.92,7.94,4.94,17.21,5.76,25.12.48,4.64-2.74,7.6-7.19,5.72l-23.75-13.95-23.24,13.83c-4.52,2.17-7.94-.82-7.44-5.61.82-7.91,4.84-17.18,5.76-25.12.05-.43.19-.85.02-1.28-5.52-5.73-12.16-10.43-17.94-15.87-3.8-3.57-6.68-7.06-.74-10.67l28.61-2.8,11-25.91c1.61-2.66,6.25-2.7,8.1-.24l11.13,26.15ZM50.41,12.43c-.96-.17-.57.15-.76.52-3.62,6.96-5.97,16.76-9.81,23.24-.79,1.33-2.07,2.31-3.59,2.66l-25.87,2.23c.46.74,1.19,1.43,1.83,2.02,5.18,4.73,11.46,9.24,16.36,14.13,1.49,1.48,3.02,2.86,2.66,5.22l-5.79,25.64c7.18-3.58,13.96-8.96,21.05-12.55,3.45-1.74,3.65-1.75,7.1,0,7.08,3.58,13.9,8.94,21.05,12.55l-5.79-25.64c-.36-2.36,1.17-3.74,2.66-5.22,4.9-4.89,11.18-9.39,16.36-14.13.64-.59,1.37-1.28,1.83-2.02l-25.87-2.23c-1.5-.35-2.81-1.33-3.59-2.66l-9.85-23.77Z"/>
</svg>