<?xml version="1.0" encoding="UTF-8"?>
<svg id="Layer_2" data-name="Layer 2" xmlns="http://www.w3.org/2000/svg" xmlns:xlink="http://www.w3.org/1999/xlink" viewBox="0 0 1612.78 288.5">
  <defs>
    <style>
      .cls-1, .cls-2 {
        fill: #fff;
      }

      .cls-3, .cls-2 {
        opacity: .2;
      }

      .cls-4 {
        opacity: .08;
      }

      .cls-5 {
        clip-path: url(#clippath);
      }

      .cls-6 {
        fill: none;
      }
    </style>
    <clipPath id="clippath">
      <path class="cls-6" d="m0,288.5V79.75C218.6,29.96,499.7,0,806.39,0s587.79,29.96,806.39,79.75v208.75H0Z"/>
    </clipPath>
  </defs>
  <g id="Layer_1-2" data-name="Layer 1">
    <g>
      <g class="cls-4">
        <g class="cls-5">
          <g>
            <g>
              <path class="cls-1" d="m1510.9,13.17c-4.02-2.21-6.98-3.61-14.01-4.23-28.33-2.51-66.64,19.14-100.45,38.25-32.79,18.53-63.77,36.04-103.03,40.34-55.68,6.11-87.6-18.88-128.01-50.51-32.41-25.37-81.4-63.71-150.33-67.79l-1.37-2.58c10.96.6,21.95,2.19,32.95,4.76,10.8,2.53,21.58,5.98,32.31,10.34,10.51,4.27,20.94,9.38,31.28,15.31,10.09,5.78,20.06,12.31,29.91,19.55,2.1,1.54,4.18,3.1,6.25,4.66,2.05,1.55,4.09,3.11,6.1,4.66,2,1.54,3.98,3.08,5.94,4.61,1.94,1.52,3.86,3.03,5.76,4.51,6.79,5.32,13.49,10.58,20.22,15.57,6.6,4.89,13.22,9.53,19.98,13.74,6.64,4.13,13.41,7.84,20.44,10.97,6.91,3.07,14.07,5.59,21.59,7.39,2.58.62,5.2,1.14,7.86,1.58,2.64.44,5.31.79,8.01,1.05,2.69.26,5.4.45,8.14.54,2.73.1,5.48.11,8.26.04,4.73-.11,9.53-.47,14.37-1.05,4.81-.58,9.67-1.39,14.56-2.42,4.86-1.03,9.76-2.28,14.67-3.76,4.89-1.47,9.8-3.16,14.72-5.07,4.95-1.93,9.9-4.07,14.84-6.37,4.93-2.3,9.85-4.76,14.76-7.31,4.9-2.55,9.78-5.2,14.64-7.89,4.85-2.69,9.67-5.41,14.45-8.11,3.11-1.76,6.25-3.53,9.4-5.3,3.15-1.77,6.32-3.52,9.49-5.26,3.17-1.73,6.34-3.43,9.51-5.09,3.16-1.66,6.32-3.26,9.46-4.8,5.97-2.92,11.72-5.47,17.22-7.63,5.48-2.15,10.71-3.92,15.64-5.31,4.92-1.38,9.54-2.38,13.86-2.99,4.29-.61,8.25-.84,11.87-.69,1.61.07,3.15.21,4.61.43,1.46.22,2.86.51,4.17.87,1.32.36,2.56.8,3.73,1.31,1.16.51,2.25,1.09,3.27,1.74l2.98,1.92h0Z"/>
              <path class="cls-1" d="m1542.1,33.3c-1-.64-2.08-1.21-3.24-1.71-1.16-.49-2.41-.92-3.73-1.26-1.32-.35-2.73-.61-4.21-.8-1.48-.19-3.04-.31-4.68-.34-3.68-.08-7.74.23-12.14.93-4.42.71-9.19,1.81-14.27,3.31-5.11,1.51-10.52,3.42-16.22,5.72-5.72,2.31-11.71,5.01-17.94,8.11-3.28,1.63-6.58,3.33-9.88,5.07-3.31,1.75-6.63,3.55-9.95,5.37-3.32,1.83-6.63,3.68-9.94,5.54-3.3,1.86-6.59,3.73-9.85,5.58-5.01,2.85-10.06,5.72-15.14,8.55-5.09,2.84-10.2,5.63-15.33,8.33-5.13,2.7-10.28,5.31-15.43,7.75-5.16,2.45-10.32,4.73-15.48,6.8-5.12,2.05-10.23,3.88-15.31,5.48-5.1,1.61-10.19,2.99-15.23,4.15-5.07,1.16-10.1,2.09-15.08,2.79-5.01.7-9.96,1.17-14.85,1.4-2.86.13-5.7.18-8.52.15-2.82-.04-5.62-.16-8.39-.36-2.78-.21-5.53-.5-8.24-.89-2.73-.39-5.42-.86-8.07-1.43-7.73-1.65-15.07-4.05-22.13-7.02-7.2-3.03-14.12-6.66-20.89-10.73-6.91-4.15-13.68-8.74-20.41-13.6-6.88-4.97-13.73-10.21-20.67-15.52-1.94-1.48-3.91-2.99-5.9-4.51-2.01-1.53-4.04-3.07-6.09-4.62-2.07-1.56-4.16-3.12-6.27-4.67-2.13-1.56-4.27-3.12-6.43-4.67-10.15-7.26-20.47-13.8-30.94-19.58-10.75-5.93-21.63-11.02-32.63-15.24-11.25-4.32-22.58-7.71-33.97-10.13-11.61-2.47-23.24-3.92-34.87-4.34l-1.56-2.93c11.57.44,23.13,1.91,34.69,4.39,11.34,2.43,22.61,5.83,33.81,10.16,10.95,4.23,21.79,9.33,32.5,15.26,10.44,5.78,20.72,12.32,30.85,19.58,2.15,1.54,4.29,3.1,6.41,4.67,2.11,1.56,4.19,3.12,6.25,4.67,2.05,1.55,4.08,3.09,6.08,4.62,1.99,1.52,3.95,3.03,5.89,4.51,6.93,5.32,13.77,10.56,20.63,15.53,6.72,4.87,13.47,9.47,20.37,13.62,6.76,4.07,13.67,7.71,20.85,10.75,7.05,2.98,14.37,5.39,22.08,7.06,2.65.57,5.33,1.05,8.05,1.44,2.71.39,5.45.69,8.22.9,2.76.21,5.55.34,8.37.38,2.8.04,5.64,0,8.49-.13,4.87-.22,9.81-.67,14.8-1.36,4.96-.69,9.98-1.61,15.03-2.76,5.02-1.14,10.09-2.51,15.18-4.11,5.07-1.59,10.16-3.4,15.26-5.44,5.14-2.05,10.28-4.33,15.42-6.76,5.13-2.43,10.26-5.02,15.37-7.71,5.11-2.69,10.2-5.47,15.26-8.29,5.06-2.82,10.09-5.68,15.08-8.51,3.25-1.84,6.52-3.7,9.81-5.56,3.29-1.85,6.59-3.69,9.89-5.51,3.3-1.82,6.61-3.61,9.91-5.35,3.29-1.74,6.58-3.43,9.84-5.05,6.21-3.08,12.17-5.77,17.87-8.06,5.68-2.29,11.08-4.18,16.17-5.68,5.07-1.49,9.82-2.58,14.23-3.28,4.39-.69,8.43-1,12.11-.91,1.63.04,3.19.16,4.67.35,1.48.19,2.88.46,4.2.81,1.32.35,2.56.77,3.73,1.26,1.16.49,2.24,1.07,3.24,1.71l3.24,2.09h0Z"/>
              <path class="cls-1" d="m1576.13,55.26c-.98-.63-2.04-1.19-3.19-1.66-1.15-.48-2.39-.88-3.71-1.2-1.33-.32-2.73-.56-4.23-.73-1.5-.16-3.07-.25-4.73-.25-3.73,0-7.86.39-12.36,1.19-4.53.81-9.43,2.03-14.67,3.66-5.27,1.64-10.87,3.68-16.77,6.13-5.93,2.46-12.16,5.33-18.65,8.6-3.41,1.72-6.85,3.51-10.3,5.35-3.45,1.84-6.92,3.74-10.38,5.66-3.47,1.92-6.93,3.87-10.38,5.83-3.45,1.96-6.89,3.92-10.3,5.87-5.23,2.99-10.52,6.01-15.83,8.99-5.32,2.98-10.66,5.93-16.01,8.78-5.36,2.85-10.73,5.6-16.1,8.19-5.38,2.59-10.75,5.03-16.11,7.23-5.32,2.19-10.63,4.16-15.9,5.9-5.29,1.75-10.55,3.27-15.77,4.56-5.24,1.3-10.44,2.36-15.57,3.19-5.17.83-10.27,1.43-15.3,1.77-2.95.2-5.87.32-8.76.36-2.91.03-5.78-.02-8.62-.16-2.85-.14-5.67-.37-8.45-.69-2.8-.32-5.55-.74-8.27-1.25-7.92-1.48-15.41-3.73-22.61-6.58-7.34-2.9-14.39-6.42-21.28-10.39-7.04-4.05-13.91-8.57-20.75-13.36-7-4.9-13.97-10.1-21.05-15.37-1.98-1.47-3.98-2.97-6.02-4.48-2.05-1.52-4.12-3.05-6.22-4.59-2.12-1.55-4.25-3.1-6.41-4.64-2.18-1.56-4.37-3.11-6.59-4.64-10.42-7.23-21.05-13.73-31.89-19.45-11.14-5.88-22.45-10.91-33.93-15.04-11.75-4.23-23.63-7.51-35.61-9.78-12.22-2.32-24.5-3.6-36.81-3.8l-1.78-3.35c12.24.22,24.45,1.52,36.61,3.86,11.92,2.29,23.73,5.58,35.44,9.83,11.42,4.14,22.69,9.18,33.8,15.07,10.8,5.72,21.4,12.23,31.79,19.47,2.21,1.54,4.4,3.09,6.57,4.64,2.16,1.55,4.29,3.1,6.4,4.65,2.1,1.54,4.17,3.07,6.21,4.59,2.03,1.51,4.03,3.01,6.01,4.48,7.06,5.28,14.02,10.48,21.01,15.39,6.83,4.8,13.69,9.33,20.72,13.39,6.87,3.98,13.91,7.51,21.24,10.43,7.19,2.86,14.66,5.12,22.56,6.63,2.71.51,5.46.94,8.25,1.26,2.77.33,5.59.57,8.43.72,2.83.15,5.7.21,8.59.18,2.88-.02,5.8-.14,8.74-.33,5.01-.33,10.1-.91,15.25-1.73,5.12-.81,10.3-1.86,15.52-3.15,5.19-1.27,10.44-2.78,15.71-4.51,5.25-1.72,10.53-3.68,15.84-5.86,5.34-2.19,10.69-4.61,16.05-7.19,5.34-2.57,10.69-5.31,16.03-8.14,5.33-2.83,10.65-5.76,15.94-8.73,5.29-2.97,10.55-5.97,15.76-8.94,3.39-1.94,6.82-3.89,10.25-5.84,3.43-1.95,6.88-3.89,10.33-5.8,3.45-1.91,6.9-3.79,10.34-5.63,3.44-1.83,6.86-3.61,10.26-5.32,6.46-3.25,12.67-6.1,18.57-8.55,5.89-2.44,11.47-4.47,16.72-6.09,5.22-1.61,10.11-2.82,14.63-3.62,4.49-.79,8.61-1.18,12.34-1.17,1.65,0,3.23.09,4.72.26,1.49.17,2.9.41,4.22.73,1.32.32,2.56.72,3.72,1.2,1.15.48,2.22,1.03,3.2,1.67l3.54,2.28h0Z"/>
              <path class="cls-1" d="m1613.39,79.31c-2.75-1.46-6.17-3.28-12.63-3.45-30.71-.81-72.57,23.24-113.06,46.5-37.51,21.55-72.94,41.91-115.85,49.35-61.43,10.65-94.57-13.2-136.52-43.4-33.03-23.78-88.31-63.58-169.39-63.47l-2.06-3.88c12.99-.06,25.91.99,38.74,3.12,12.55,2.09,24.96,5.2,37.2,9.29,11.93,3.99,23.65,8.9,35.14,14.67,11.16,5.61,22.07,12.01,32.73,19.15,2.26,1.51,4.5,3.04,6.72,4.58,2.2,1.52,4.38,3.06,6.53,4.58,2.14,1.51,4.25,3.03,6.33,4.52,2.07,1.49,4.11,2.96,6.11,4.41,7.18,5.19,14.24,10.29,21.33,15.09,6.92,4.69,13.88,9.09,21.01,13.02,6.97,3.84,14.12,7.21,21.58,9.96,7.31,2.68,14.93,4.76,23.01,6.05,2.77.44,5.58.79,8.44,1.04,2.84.25,5.73.41,8.65.48,2.91.07,5.85.05,8.83-.06,2.96-.11,5.96-.3,8.99-.58,5.16-.48,10.41-1.21,15.72-2.18,5.28-.96,10.63-2.16,16.04-3.6,5.38-1.43,10.81-3.09,16.28-4.98,5.45-1.88,10.94-3.99,16.46-6.33,5.56-2.35,11.14-4.93,16.73-7.67,5.58-2.73,11.17-5.63,16.75-8.63,5.57-2.99,11.14-6.09,16.68-9.22,5.54-3.13,11.05-6.29,16.5-9.43,3.56-2.04,7.14-4.1,10.74-6.15,3.6-2.05,7.21-4.1,10.82-6.11,3.61-2.02,7.22-4,10.81-5.94,3.59-1.94,7.17-3.82,10.72-5.63,6.74-3.44,13.2-6.48,19.33-9.09,6.11-2.61,11.89-4.79,17.3-6.56,5.39-1.76,10.41-3.09,15.03-4.01,4.59-.91,8.79-1.4,12.56-1.47,1.67-.03,3.26.02,4.76.15,1.5.13,2.91.35,4.23.64,1.32.29,2.55.67,3.68,1.13,1.14.45,2.18.99,3.13,1.6l3.88,2.5h0Z"/>
              <path class="cls-1" d="m1654.37,105.76c-.91-.59-1.92-1.09-3.02-1.51-1.11-.42-2.32-.76-3.62-1.01-1.31-.25-2.71-.43-4.21-.51-1.5-.09-3.1-.09-4.79,0-3.81.19-8.08.82-12.78,1.88-4.74,1.07-9.91,2.57-15.48,4.51-5.61,1.95-11.61,4.34-17.98,7.15-6.4,2.83-13.16,6.09-20.24,9.77-3.72,1.94-7.48,3.95-11.26,6.01-3.78,2.06-7.58,4.18-11.39,6.33-3.81,2.15-7.61,4.32-11.41,6.5-3.79,2.18-7.58,4.37-11.33,6.54-5.76,3.33-11.57,6.69-17.41,10.02-5.84,3.33-11.72,6.63-17.58,9.82-5.88,3.2-11.76,6.3-17.61,9.24-5.87,2.94-11.73,5.73-17.54,8.28-5.78,2.54-11.52,4.85-17.19,6.93-5.71,2.09-11.36,3.96-16.95,5.58-5.62,1.64-11.17,3.04-16.64,4.2-5.51,1.17-10.93,2.09-16.25,2.77-3.12.39-6.21.7-9.26.92-3.07.22-6.1.35-9.08.4-3,.04-5.96,0-8.88-.16-2.93-.15-5.81-.39-8.64-.73-8.27-.99-16.04-2.79-23.46-5.21-7.59-2.47-14.83-5.61-21.87-9.21-7.22-3.69-14.24-7.88-21.24-12.37-7.17-4.6-14.31-9.52-21.58-14.52-2.03-1.4-4.1-2.83-6.2-4.26-2.11-1.45-4.26-2.91-6.43-4.38-2.19-1.48-4.41-2.96-6.65-4.44-2.26-1.49-4.55-2.97-6.86-4.43-10.91-6.92-22.14-13.1-33.7-18.47-11.94-5.54-24.17-10.2-36.68-13.91-12.87-3.82-25.97-6.62-39.29-8.37-13.64-1.79-27.43-2.45-41.36-1.96l-2.42-4.55c13.84-.44,27.55.26,41.11,2.09,13.25,1.78,26.29,4.62,39.1,8.47,12.46,3.74,24.64,8.43,36.54,14,11.52,5.39,22.73,11.6,33.62,18.55,2.31,1.47,4.59,2.96,6.85,4.45,2.24,1.48,4.46,2.97,6.64,4.45,2.17,1.47,4.31,2.94,6.43,4.4,2.1,1.44,4.16,2.87,6.2,4.28,7.26,5.03,14.4,9.96,21.57,14.59,6.99,4.51,14.01,8.72,21.22,12.44,7.04,3.63,14.27,6.79,21.85,9.29,7.41,2.45,15.17,4.27,23.42,5.3,2.82.35,5.7.6,8.63.76,2.91.16,5.86.22,8.85.19,2.98-.03,6-.15,9.06-.36,3.04-.21,6.12-.5,9.24-.89,5.31-.65,10.72-1.56,16.2-2.71,5.45-1.14,10.99-2.52,16.58-4.14,5.57-1.61,11.2-3.45,16.88-5.52,5.66-2.06,11.37-4.36,17.12-6.87,5.79-2.54,11.62-5.3,17.46-8.22,5.83-2.92,11.68-6,17.53-9.18,5.84-3.18,11.68-6.45,17.5-9.76,5.81-3.31,11.59-6.65,17.33-9.97,3.73-2.16,7.49-4.33,11.27-6.5,3.77-2.17,7.56-4.33,11.35-6.46,3.78-2.13,7.57-4.24,11.33-6.29,3.76-2.05,7.5-4.05,11.21-5.98,7.05-3.66,13.78-6.9,20.15-9.7,6.35-2.8,12.33-5.16,17.92-7.09,5.56-1.92,10.72-3.41,15.44-4.46,4.7-1.04,8.96-1.66,12.77-1.84,1.69-.08,3.28-.07,4.79.02,1.5.09,2.9.26,4.21.52,1.3.26,2.51.6,3.63,1.03,1.11.42,2.12.93,3.03,1.52l4.29,2.77h0Z"/>
            </g>
            <g>
              <path class="cls-1" d="m1013.7-33.35c-3.34-.18-6.67-.27-10-.27-3.34,0-6.68.1-10,.29-3.34.19-6.67.48-9.99.86-3.33.38-6.66.86-9.97,1.44-12.48,2.16-24.54,5.63-36.27,10.07-11.78,4.46-23.16,9.89-34.23,15.94-11.08,6.06-21.82,12.72-32.34,19.64-10.51,6.92-20.77,14.09-30.93,21.19-7.28,5.08-14.6,10.21-22.04,15.25-7.43,5.04-14.97,10.01-22.68,14.79-7.71,4.78-15.59,9.38-23.72,13.69-8.14,4.31-16.53,8.34-25.25,11.98-8.89,3.71-18.14,7-27.71,9.88-9.62,2.89-19.57,5.38-29.8,7.44-10.31,2.08-20.92,3.73-31.78,4.96-10.97,1.24-22.21,2.04-33.68,2.41-9.24.29-18.64.29-28.16,0-9.62-.3-19.38-.9-29.25-1.81-9.98-.92-20.08-2.16-30.27-3.73-10.32-1.59-20.74-3.52-31.23-5.8-24.19-5.25-48.52-12.32-72.62-21.07-25-9.07-49.85-19.97-74.07-32.55-25.21-13.09-49.8-28.03-73.16-44.61-24.37-17.3-47.42-36.4-68.39-57.02l-5.25,3.66c21.26,20.73,44.62,39.91,69.3,57.27,23.65,16.63,48.52,31.61,74.01,44.73,24.48,12.6,49.58,23.5,74.83,32.57,24.33,8.74,48.89,15.79,73.28,21.01,10.57,2.27,21.08,4.18,31.49,5.76,10.27,1.55,20.46,2.78,30.52,3.68,9.94.89,19.78,1.48,29.47,1.76,9.59.28,19.06.26,28.37-.05,11.55-.38,22.87-1.22,33.92-2.48,10.94-1.25,21.62-2.94,32-5.04,10.3-2.09,20.31-4.6,29.99-7.52,9.63-2.91,18.94-6.23,27.89-9.97,8.78-3.67,17.23-7.73,25.42-12.07,8.18-4.34,16.12-8.97,23.87-13.78,7.76-4.81,15.35-9.81,22.82-14.88,7.48-5.08,14.86-10.23,22.18-15.35,10.23-7.15,20.56-14.36,31.13-21.32,10.58-6.97,21.39-13.67,32.55-19.77,11.14-6.09,22.59-11.56,34.45-16.06,11.79-4.48,23.94-7.98,36.48-10.17,3.33-.58,6.67-1.06,10.03-1.46,3.34-.39,6.69-.68,10.05-.88,3.35-.2,6.7-.3,10.06-.31,3.35,0,6.7.08,10.05.25l-1.37-2.58h0Z"/>
              <path class="cls-1" d="m1028.24-6.02c-3.53-.13-7.05-.17-10.57-.11-3.53.06-7.06.22-10.59.47-3.54.26-7.07.61-10.59,1.06-3.53.46-7.06,1.01-10.58,1.66-13.25,2.46-26.09,6.27-38.57,11.09-12.55,4.85-24.69,10.69-36.51,17.18-11.83,6.49-23.3,13.61-34.53,20.99-11.22,7.38-22.19,15.01-33.04,22.57-7.77,5.41-15.6,10.86-23.54,16.24-7.93,5.37-15.98,10.66-24.21,15.77-8.23,5.11-16.65,10.02-25.33,14.65-8.69,4.63-17.66,8.98-26.98,12.93-9.5,4.03-19.4,7.63-29.63,10.82-10.29,3.2-20.95,5.99-31.91,8.35-11.05,2.38-22.44,4.33-34.11,5.85-11.79,1.53-23.89,2.62-36.25,3.26-9.96.51-20.11.73-30.39.64-10.4-.09-20.97-.48-31.66-1.2-10.83-.73-21.8-1.78-32.89-3.18-11.24-1.41-22.6-3.18-34.06-5.31-26.46-4.92-53.2-11.74-79.79-20.34-27.67-8.95-55.3-19.85-82.38-32.56-28.28-13.28-56.04-28.57-82.58-45.69-27.81-17.93-54.31-37.88-78.64-59.58l-6.35,4.42c24.71,21.81,51.61,41.84,79.81,59.83,26.9,17.16,55.01,32.49,83.64,45.78,27.4,12.72,55.34,23.61,83.3,32.54,26.87,8.58,53.87,15.37,80.58,20.24,11.56,2.11,23.03,3.86,34.37,5.25,11.18,1.37,22.25,2.41,33.17,3.11,10.78.69,21.44,1.07,31.93,1.13,10.37.06,20.59-.18,30.64-.72,12.45-.67,24.64-1.79,36.52-3.36,11.76-1.55,23.23-3.53,34.37-5.95,11.04-2.39,21.77-5.21,32.14-8.45,10.3-3.22,20.27-6.86,29.83-10.92,9.38-3.98,18.41-8.36,27.16-13.03,8.74-4.66,17.22-9.62,25.5-14.76,8.29-5.14,16.39-10.47,24.38-15.87,7.99-5.41,15.88-10.9,23.7-16.34,10.93-7.61,21.97-15.29,33.27-22.72,11.31-7.43,22.86-14.59,34.77-21.13,11.9-6.53,24.12-12.42,36.75-17.31,12.57-4.86,25.49-8.72,38.82-11.21,3.54-.66,7.09-1.22,10.64-1.69,3.54-.46,7.09-.82,10.65-1.09,3.54-.26,7.09-.43,10.65-.49,3.54-.07,7.08-.03,10.63.09l-1.56-2.93h0Z"/>
              <path class="cls-1" d="m1044.81,25.12c-3.73-.07-7.47-.04-11.2.09-3.75.13-7.49.37-11.24.7-3.76.34-7.51.77-11.26,1.31-3.76.54-7.52,1.19-11.26,1.94-14.12,2.82-27.83,7.05-41.19,12.31-13.44,5.3-26.44,11.63-39.11,18.61-12.69,7-25,14.63-37.05,22.54-12.04,7.9-23.81,16.06-35.46,24.14-8.34,5.78-16.74,11.61-25.26,17.36-8.51,5.74-17.15,11.41-25.98,16.88-8.83,5.48-17.86,10.77-27.17,15.76-9.33,5-18.95,9.71-28.96,14.03-10.2,4.4-20.83,8.38-31.83,11.93-11.07,3.58-22.54,6.73-34.35,9.46-11.92,2.75-24.21,5.07-36.81,6.96-12.75,1.9-25.85,3.36-39.23,4.35-10.81.8-21.82,1.31-33.01,1.5-11.32.2-22.84.08-34.51-.37-11.83-.45-23.84-1.24-35.99-2.39-12.33-1.16-24.82-2.68-37.43-4.58-29.2-4.4-58.83-10.78-88.46-19.05-30.93-8.63-61.99-19.35-92.62-32.03-32.13-13.3-63.87-28.81-94.47-46.35-32.21-18.47-63.19-39.22-91.93-62l-7.84,5.46c29.26,22.89,60.76,43.72,93.48,62.23,31.07,17.58,63.27,33.09,95.83,46.38,31.03,12.67,62.48,23.35,93.78,31.94,29.97,8.22,59.92,14.55,89.42,18.88,12.74,1.87,25.36,3.36,37.81,4.49,12.26,1.11,24.39,1.87,36.33,2.29,11.78.42,23.4.5,34.82.27,11.28-.23,22.4-.76,33.3-1.6,13.5-1.04,26.71-2.54,39.56-4.48,12.71-1.92,25.1-4.29,37.11-7.08,11.9-2.77,23.46-5.97,34.61-9.58,11.08-3.6,21.79-7.61,32.07-12.05,10.08-4.35,19.77-9.11,29.17-14.15,9.38-5.03,18.48-10.37,27.37-15.88,8.89-5.52,17.59-11.22,26.17-17.01,8.58-5.79,17.04-11.65,25.44-17.48,11.73-8.14,23.59-16.35,35.72-24.31,12.14-7.96,24.54-15.65,37.32-22.7,12.76-7.04,25.86-13.42,39.39-18.77,13.45-5.32,27.26-9.59,41.47-12.45,3.77-.76,7.55-1.42,11.34-1.97,3.77-.55,7.55-1,11.33-1.34,3.77-.34,7.54-.59,11.31-.73,3.75-.14,7.51-.18,11.26-.12l-1.78-3.35h0Z"/>
              <path class="cls-1" d="m1063.87,60.95c-3.97.02-7.93.14-11.91.37-3.99.23-7.98.56-11.97,1-4.01.44-8.01.98-12.02,1.64-4.02.65-8.03,1.42-12.04,2.28-15.12,3.27-29.83,7.99-44.19,13.79-14.45,5.84-28.45,12.73-42.11,20.3-13.68,7.58-26.96,15.82-39.96,24.33-12.99,8.5-25.69,17.27-38.26,25.95-9,6.21-18.06,12.46-27.24,18.64-9.18,6.17-18.49,12.27-28.01,18.17-9.52,5.9-19.26,11.63-29.3,17.05-10.06,5.43-20.44,10.58-31.24,15.33-11.02,4.84-22.5,9.27-34.39,13.27-11.97,4.03-24.39,7.64-37.19,10.83-12.92,3.22-26.27,6.01-39.97,8.36-13.87,2.38-28.14,4.31-42.76,5.78-11.81,1.19-23.86,2.07-36.11,2.65-12.42.58-25.07.85-37.91.78-13.03-.07-26.28-.49-39.71-1.26-13.65-.78-27.51-1.94-41.53-3.49-32.54-3.59-65.74-9.25-99.13-16.89-35-8.01-70.39-18.25-105.54-30.61-37.05-13.04-73.97-28.49-109.88-46.23C73.46,144.21,36.49,122.82,1.77,99.04l-9.92,6.91c35.44,23.87,73.11,45.31,111.81,64.11,36.53,17.74,74.05,33.17,111.67,46.16,35.66,12.31,71.55,22.48,107.01,30.4,33.81,7.56,67.42,13.13,100.33,16.61,14.18,1.5,28.19,2.61,41.99,3.35,13.57.73,26.96,1.1,40.13,1.12,12.97.02,25.74-.28,38.28-.91,12.37-.62,24.54-1.55,36.46-2.79,14.75-1.52,29.15-3.51,43.14-5.95,13.83-2.4,27.29-5.25,40.32-8.52,12.91-3.24,25.43-6.9,37.5-10.99,11.99-4.06,23.57-8.53,34.67-13.42,10.89-4.8,21.35-9.99,31.49-15.47,10.12-5.47,19.94-11.24,29.53-17.19,9.6-5.95,18.98-12.1,28.24-18.31,9.26-6.22,18.39-12.53,27.46-18.78,12.67-8.74,25.47-17.57,38.57-26.14,13.11-8.58,26.49-16.88,40.28-24.53,13.76-7.63,27.88-14.59,42.44-20.49,14.46-5.86,29.29-10.64,44.51-13.96,4.04-.88,8.08-1.66,12.13-2.32,4.03-.66,8.06-1.22,12.1-1.67,4.02-.45,8.03-.79,12.05-1.03,4-.24,7.99-.37,11.98-.4l-2.06-3.88h0Z"/>
              <path class="cls-1" d="m1088.46,107.16c-4.26.15-8.52.41-12.79.77-4.29.37-8.59.84-12.9,1.43-4.32.59-8.65,1.29-12.97,2.1-4.34.81-8.69,1.74-13.03,2.77-16.38,3.91-32.39,9.31-48.03,15.83-15.75,6.56-31.06,14.21-45.99,22.55-14.97,8.36-29.5,17.37-43.75,26.67-14.23,9.29-28.14,18.83-41.9,28.27-9.85,6.76-19.77,13.56-29.83,20.29-10.05,6.72-20.24,13.38-30.66,19.84-10.42,6.46-21.08,12.75-32.07,18.74-11.01,6-22.38,11.73-34.22,17.06-12.08,5.44-24.68,10.48-37.73,15.11-13.16,4.66-26.82,8.92-40.91,12.76-14.25,3.88-28.98,7.35-44.14,10.38-15.36,3.08-31.19,5.72-47.44,7.9-13.14,1.77-26.58,3.24-40.27,4.4-13.89,1.18-28.07,2.04-42.5,2.57-14.66.54-29.61.74-44.79.57-15.46-.17-31.2-.71-47.16-1.65-37.18-2.19-75.38-6.51-114.1-12.92-40.81-6.76-82.45-15.87-124.19-27.31-44.31-12.14-88.96-26.95-132.93-44.38-46.93-18.6-93.21-40.23-137.4-64.77l13-9.06c43.15,24.49,88.42,46.14,134.4,64.79,43.11,17.49,86.93,32.4,130.48,44.66,41.06,11.56,82.04,20.81,122.25,27.71,38.16,6.55,75.85,11.03,112.56,13.37,15.77,1.01,31.31,1.62,46.59,1.86,15.01.23,29.78.1,44.28-.37,14.27-.47,28.29-1.26,42.03-2.38,13.55-1.1,26.85-2.51,39.86-4.22,16.08-2.11,31.76-4.67,46.97-7.68,15.01-2.96,29.61-6.36,43.73-10.17,13.97-3.77,27.51-7.96,40.55-12.56,12.94-4.56,25.43-9.54,37.4-14.92,11.73-5.28,23.01-10.94,33.92-16.89,10.9-5.94,21.47-12.16,31.8-18.57,10.33-6.41,20.44-13.01,30.4-19.68,9.97-6.68,19.81-13.43,29.57-20.13,13.65-9.37,27.44-18.84,41.55-28.04,14.12-9.22,28.53-18.16,43.37-26.44,14.81-8.26,29.98-15.84,45.61-22.33,15.52-6.44,31.39-11.78,47.65-15.62,4.31-1.02,8.62-1.92,12.94-2.72,4.3-.79,8.59-1.47,12.88-2.05,4.27-.57,8.54-1.03,12.8-1.38,4.24-.35,8.48-.59,12.71-.73l2.42,4.55h0Z"/>
            </g>
          </g>
        </g>
      </g>
      <g class="cls-3">
        <path class="cls-1" d="m1354.95,201.6l18.32-6.42,6.06,19.4c.73,2.33,0,4.93-1.95,6.4-1.56,1.18-3.93,2.1-7.46,1.74-8.41-.85-1.44-8.17,6.53-7.64l-5.51-14.24-11.15,3.83s3.81,12.69,3.73,14.94c-.12,3.42-12.92,5.75-12.99.68-.05-4.11,9.43-5.22,9.43-5.22l-5.02-13.47Z"/>
      </g>
      <g class="cls-3">
        <path class="cls-1" d="m61.94,131.89l19.36,1.42-2.18,20.21c-.26,2.43-1.96,4.52-4.34,5.09-1.9.46-4.44.36-7.54-1.38-7.37-4.13,1.94-8.06,9.04-4.4l.63-15.25-11.75-.94s-1.57,13.16-2.54,15.19c-1.48,3.09-14.14.12-12.18-4.56,1.59-3.79,10.73-1.03,10.73-1.03l.77-14.35Z"/>
      </g>
      <g class="cls-3">
        <path class="cls-1" d="m1533.42,78.08c-5.79,1.35-9.6,10.17-9.6,10.17l8.23,9.56c-1.13.48-2.26,1.28-2.92,2.6-1.71,3.41,1.22,7.73,5,6.2,1-.4,1.72-1.05,2.24-1.8,1.61-2.31,1.25-5.47-.6-7.58l-.13-.14h0l-8.54-9.72c4.31-5.95,6.26-4.97,6.26-4.97-2.47,2.44,1.14,6.16,3.36,3.71,3.25-3.58-3.3-8.02-3.3-8.02Z"/>
      </g>
      <g class="cls-3">
        <path class="cls-1" d="m1526.52,138.47c-5.79,1.35-9.6,10.17-9.6,10.17l8.23,9.56c-1.13.48-2.26,1.28-2.92,2.6-1.71,3.41,1.22,7.73,5,6.2,1-.4,1.72-1.05,2.24-1.8,1.61-2.31,1.25-5.47-.6-7.58l-.13-.15h0l-8.54-9.72c4.31-5.95,6.26-4.97,6.26-4.97-2.47,2.44,1.14,6.16,3.36,3.71,3.25-3.58-3.3-8.02-3.3-8.02Z"/>
      </g>
      <path class="cls-2" d="m1409.2,83.76l.02-.35s.06-10.21,1.35-17.93c.35-2.08,1.03-4.86,1.03-4.86h0c-3.65.57-4.77,12.88-4.77,12.88l-.63,7.9c-1.18-.48-2.58-.73-4.04-.26-3.75,1.22-4.8,6.52-.92,8.19,1.22.52,2.4.49,3.46.2,2.56-.72,4.3-3.11,4.49-5.77Z"/>
      <path class="cls-2" d="m1415.6,161.48l.02-.35s.06-10.21,1.35-17.93c.35-2.08,1.03-4.86,1.03-4.86h0c-3.65.57-4.77,12.88-4.77,12.88l-.63,7.9c-1.18-.48-2.58-.73-4.04-.26-3.75,1.22-4.8,6.52-.92,8.19,1.22.52,2.4.49,3.46.2,2.56-.72,4.3-3.11,4.49-5.77Z"/>
      <path class="cls-2" d="m1471.82,120.28l.07.35s2.6,9.88,3.36,17.66c.2,2.1.27,4.96.27,4.96h0c3.38-1.5,1.26-13.68,1.26-13.68l-1.45-7.79c1.26.16,2.69.03,3.97-.8,3.3-2.16,2.94-7.55-1.24-8.15-1.32-.19-2.45.15-3.39.71-2.28,1.36-3.34,4.12-2.83,6.73Z"/>
      <g class="cls-3">
        <path class="cls-1" d="m1315.93,142.98c-2.34-2.88-1.57-7.06-1.54-7.24.17-.88,1.02-1.44,1.9-1.26.88.18,1.47,1.05,1.31,1.93-.15.8-.27,3.17.86,4.55.68.83,1.75,1.25,3.28,1.28,2.02.04,3.6-3.21,4.9-8.05-3.83-1.07-7.23-3.56-9.64-7.28-4.58-7.07-5.18-18.37,3.8-27.68,4.88-5.05,9.7-7.77,14.03-10.07,1.55-6.24,3.5-11.87,6.12-16.09,2.4-3.87,5.39-5.96,8.2-5.73,1.8.14,3.29,1.22,4.09,2.95,1.39,3.02.42,7.19-2.6,11.16-3.81,5.01-8.26,7.44-12.98,9.94-.81,3.46-1.52,7.1-2.15,10.79,5.13,1.48,8.99,6.06,10.24,12.52,1.44,7.44-1.22,16.4-9.1,19.11-2.27.78-4.56,1.08-6.76.94-1.8,6.68-4.2,10.85-8.15,10.76-1.38-.03-2.59-.3-3.62-.8-.86-.42-1.58-.99-2.18-1.73Zm13.22-21.31c-1.38-.45-2.67-1.22-3.81-2.31-3.23-3.08-4.52-8.12-3.06-11.99,1.34-3.57,4.75-5.65,9.35-5.71.21,0,.43,0,.64,0,.48-2.78.99-5.54,1.57-8.22-3.47,1.96-7.03,4.3-10.67,8.08-7.76,8.04-7.32,17.67-3.45,23.65,1.66,2.56,4.29,4.9,7.68,5.88.64-2.87,1.21-6.08,1.75-9.39Zm5.82-16.28c-.49,3.02-.94,6.05-1.38,8.99-.23,1.51-.45,2.99-.67,4.44.83-.09,1.68-.33,2.55-.71.82-.36,1.79.02,2.16.85.38.83.02,1.79-.8,2.15-1.49.65-2.99.99-4.43,1.03-.55,3.4-1.11,6.57-1.73,9.41,1.52.02,3.14-.23,4.87-.82,6.16-2.12,8.2-9.39,7.02-15.47-.72-3.72-2.73-7.61-6.34-9.37-.39-.19-.81-.36-1.24-.5Zm-4.61,8.44c.44-2.91.89-5.9,1.37-8.9-3.3.04-5.51,1.31-6.4,3.65-1,2.65-.04,6.28,2.23,8.44.64.61,1.35,1.07,2.11,1.38.24-1.53.47-3.06.69-4.58Zm18.6-43.24c-1.2-.09-3.2.97-5.23,4.24-2.02,3.25-3.62,7.47-4.95,12.2,3.46-1.94,6.54-4.04,9.25-7.61,2.7-3.55,2.9-6.44,2.26-7.84-.19-.42-.45-.7-.78-.86-.16-.08-.34-.13-.54-.14Z"/>
      </g>
      <g class="cls-3">
        <path class="cls-1" d="m284.29,219.12l15.15,1.92-2.56,15.79c-.31,1.9-1.73,3.47-3.62,3.82-1.52.28-3.51.1-5.87-1.4-5.62-3.56,1.86-6.26,7.28-3.08l1.13-11.96-9.2-1.23s-1.78,10.28-2.63,11.83c-1.29,2.37-11.12-.5-9.38-4.09,1.41-2.91,8.47-.36,8.47-.36l1.21-11.25Z"/>
      </g>
      <g class="cls-3">
        <path class="cls-1" d="m283.81,72.21l14.41-5.05,4.77,15.27c.57,1.83,0,3.88-1.53,5.04-1.23.93-3.09,1.65-5.87,1.37-6.62-.67-1.13-6.43,5.14-6.01l-4.34-11.2-8.78,3.01s3,9.99,2.94,11.75c-.1,2.69-10.17,4.53-10.22.54-.04-3.23,7.42-4.11,7.42-4.11l-3.95-10.6Z"/>
      </g>
      <g class="cls-3">
        <path class="cls-1" d="m221.13,176.15c-4.56,1.06-7.56,8.01-7.56,8.01l6.48,7.52c-.89.38-1.78,1-2.3,2.04-1.35,2.68.96,6.08,3.94,4.88.78-.32,1.35-.83,1.76-1.42,1.27-1.82.99-4.3-.48-5.97l-.1-.11h0l-6.72-7.65c3.39-4.68,4.93-3.91,4.93-3.91-1.94,1.92.89,4.85,2.64,2.92,2.56-2.82-2.59-6.31-2.59-6.31Z"/>
      </g>
      <path class="cls-2" d="m283.57,159.72l.09-.26s2.07-7.77,4.58-13.39c.68-1.51,1.75-3.5,1.75-3.5h0c-2.9-.29-6.18,8.86-6.18,8.86l-2.04,5.89c-.8-.6-1.82-1.07-3.02-1-3.1.19-4.95,4.02-2.32,6.06.83.64,1.73.85,2.6.83,2.09-.04,3.89-1.52,4.56-3.5Z"/>
      <g class="cls-3">
        <path class="cls-1" d="m154.03,256.4c-7.66-2.49-11.21-11.03-11.36-11.39-.73-1.8.16-3.83,1.98-4.54,1.83-.71,3.91.18,4.66,1.98.68,1.63,3.24,6.11,6.93,7.29,2.22.71,4.67.21,7.5-1.53,3.75-2.31,2.78-10.11-.55-20.49-8.25,2.57-17.41,2.04-26.2-1.9-16.71-7.5-31.15-27.42-25.74-55.02,2.94-14.98,8.54-25.64,13.71-34.95-4.54-13.22-7.63-25.79-7.83-36.6-.18-9.89,2.8-17.23,8.2-20.15,3.46-1.87,7.45-1.67,10.95.55,6.1,3.87,9.24,12.63,8.42,23.45-1.04,13.63-6.29,23.33-11.95,33.47,2.6,7.27,5.62,14.76,8.81,22.23,11.12-3.36,23.56.45,33.48,10.77,11.42,11.89,17.13,31.38,5.95,45.64-3.22,4.11-7.04,7.36-11.24,9.7,4.61,14.33,5.14,24.76-2.17,29.27-2.56,1.58-5.07,2.51-7.54,2.82-2.05.25-4.07.06-6.03-.58Zm-1.03-54.51c-3.06.81-6.32.92-9.69.29-9.53-1.81-17.84-9.49-19.75-18.28-1.76-8.1,2.01-15.92,10.34-21.45.39-.26.78-.51,1.18-.74-2.41-5.63-4.72-11.28-6.85-16.86-4.02,7.66-7.74,16.15-9.94,27.35-4.68,23.83,7.49,40.9,21.63,47.25,6.04,2.71,13.63,3.89,20.97,1.67-2.22-5.99-4.97-12.54-7.9-19.21Zm-8.6-36.59c2.68,6.1,5.42,12.16,8.09,18.05,1.37,3.03,2.72,6,4.02,8.9,1.4-1.15,2.68-2.59,3.81-4.31,1.07-1.62,3.29-2.07,4.95-1,1.66,1.07,2.14,3.25,1.07,4.87-1.96,2.95-4.28,5.34-6.87,7.1,3.02,6.85,5.74,13.3,7.94,19.22,2.79-1.76,5.47-4.13,7.91-7.25,8.75-11.15,3.88-26.81-5.45-36.53-5.71-5.94-13.98-10.67-22.63-9.62-.94.12-1.89.3-2.85.56Zm1.55,20.85c-2.64-5.83-5.35-11.82-8.01-17.87-5.97,3.98-8.52,8.89-7.37,14.21,1.31,6.02,7.34,11.52,14.03,12.79,1.9.36,3.73.37,5.48.04-1.38-3.07-2.77-6.14-4.14-9.17Zm-17.1-100.89c-2.3,1.24-4.7,5.55-4.54,13.93.15,8.31,2.2,17.91,5.36,28.13,4.03-7.63,7.17-15.1,7.9-24.81.73-9.66-2.3-15.18-5.13-16.97-.84-.53-1.66-.75-2.45-.65-.39.05-.78.17-1.15.38Z"/>
      </g>
    </g>
  </g>
</svg>