<?xml version="1.0" encoding="UTF-8"?>
<svg id="Layer_2" data-name="Layer 2" xmlns="http://www.w3.org/2000/svg" viewBox="0 0 29.49 29.49">
  <defs>
    <style>
      .cls-1 {
        fill: #fff;
      }
    </style>
  </defs>
  <g id="text">
    <path class="cls-1" d="m14.74,0C6.6,0,0,6.6,0,14.74s6.6,14.74,14.74,14.74,14.74-6.6,14.74-14.74S22.89,0,14.74,0Zm.37,15.83c0,3.08-1.85,5.68-5.18,5.68s-5.35-2.81-5.35-6.49c0-4.01,2.23-6.35,5.35-6.35,2.2,0,3.51.76,4.53,2.32l-1.76,1.02c-.61-.97-1.34-1.34-2.6-1.34-2.1,0-3.32,1.32-3.32,4.34,0,2.6,1.18,4.54,3.15,4.54,1.85,0,2.67-1.02,2.67-2.69h-2.46v-1.88h4.97v.84h0Zm6.59.07v3.66h-1.6v-3.66h-3.66v-1.6h3.66v-3.64h1.6v3.64h3.64v1.6h-3.64Z"/>
  </g>
</svg>