<?xml version="1.0" encoding="UTF-8"?>
<svg id="Layer_2" data-name="Layer 2" xmlns="http://www.w3.org/2000/svg" viewBox="0 0 39.76 39.76">
  <defs>
    <style>
      .cls-1 {
        stroke: #00a1d8;
        stroke-miterlimit: 10;
        stroke-width: 2px;
      }

      .cls-1, .cls-2 {
        fill: none;
      }
    </style>
  </defs>
  <g id="text">
    <g>
      <g>
        <path class="cls-1" d="M28.46,18.47v-7.08c0-1.56-1.27-2.83-2.83-2.83s-2.83,1.27-2.83,2.83"/>
        <path class="cls-1" d="M22.79,17.05v-8.5c0-1.56-1.27-2.83-2.83-2.83s-2.83,1.27-2.83,2.83v2.83"/>
        <path class="cls-1" d="M17.12,17.76v-6.38c0-1.56-1.27-2.83-2.83-2.83s-2.83,1.27-2.83,2.83v11.33"/>
        <path class="cls-1" d="M28.46,14.22c0-1.56,1.27-2.83,2.83-2.83s2.83,1.27,2.83,2.83v8.5c0,6.26-5.07,11.33-11.33,11.33h-2.83c-3.97,0-6.38-1.22-8.49-3.32l-5.1-5.1c-1.05-1.16-.96-2.95.2-4,1.08-.98,2.73-.97,3.81,0l2.49,2.49"/>
      </g>
      <rect class="cls-2" width="39.76" height="39.76"/>
    </g>
  </g>
</svg>