<?xml version="1.0" encoding="UTF-8"?>
<svg id="Layer_2" data-name="Layer 2" xmlns="http://www.w3.org/2000/svg" viewBox="0 0 29.49 29.49">
  <defs>
    <style>
      .cls-1 {
        fill: #fff;
      }
    </style>
  </defs>
  <g id="text">
    <path class="cls-1" d="m14.74,0C6.6,0,0,6.6,0,14.74s6.6,14.74,14.74,14.74,14.74-6.6,14.74-14.74S22.89,0,14.74,0Zm-5.29,22.08c-1.14.04-2.02-.8-2.02-1.92,0-1.09.82-1.91,1.93-1.92,1.1-.01,1.91.8,1.91,1.92,0,1.07-.77,1.88-1.83,1.92Zm6.43,0c-.69.07-1.24-.17-1.42-.93-.08-.32-.14-.64-.22-.96-.64-2.75-2.29-4.46-5.11-4.95-.21-.04-.4-.11-.61-.15-.82-.14-1.19-.61-1.09-1.45.09-.79.54-1.13,1.43-1.12,3.63.06,7.07,3.1,7.92,7.03.09.41.17.82.19,1.24.03.74-.34,1.21-1.08,1.29Zm5.14.02c-.88.11-1.4-.32-1.54-1.44-.42-3.54-1.98-6.4-4.85-8.55-1.74-1.31-3.75-1.78-5.84-2.08-1.12-.16-1.47-.6-1.37-1.49.09-.82.59-1.23,1.52-1.13,4.88.52,8.74,2.71,11.26,7,1.09,1.85,1.72,3.87,1.85,6.02.06,1.1-.22,1.57-1.03,1.66Z"/>
  </g>
</svg>