<?xml version="1.0" encoding="UTF-8"?>
<svg id="Layer_2" data-name="Layer 2" xmlns="http://www.w3.org/2000/svg" xmlns:xlink="http://www.w3.org/1999/xlink" viewBox="0 0 1608 831.06">
  <defs>
    <style>
      .cls-1 {
        fill: #018ed6;
      }

      .cls-2 {
        opacity: .31;
      }

      .cls-3 {
        fill: #ffc16e;
      }

      .cls-4 {
        opacity: .2;
      }

      .cls-5 {
        clip-path: url(#clippath-1);
      }

      .cls-6 {
        fill: #ee6458;
      }

      .cls-7 {
        opacity: .3;
      }

      .cls-8 {
        fill: #ffc000;
      }

      .cls-9 {
        opacity: .1;
      }

      .cls-10 {
        clip-path: url(#clippath);
      }

      .cls-11 {
        fill: #ff6d00;
      }

      .cls-12, .cls-13, .cls-14 {
        fill: none;
      }

      .cls-15 {
        fill: #00af95;
      }

      .cls-13 {
        stroke: #ff6d00;
        stroke-linecap: round;
        stroke-linejoin: round;
      }

      .cls-13, .cls-14 {
        stroke-width: 4px;
      }

      .cls-16 {
        fill: #ffe2e0;
      }

      .cls-17 {
        fill: #ffbc00;
      }

      .cls-14 {
        stroke: #ffbc00;
        stroke-miterlimit: 10;
      }

      .cls-18 {
        fill: #f9bfbb;
      }
    </style>
    <clipPath id="clippath">
      <rect class="cls-12" width="1608" height="831.06"/>
    </clipPath>
    <clipPath id="clippath-1">
      <polygon class="cls-12" points="-146.14 -228.87 -146.14 168.64 -146.14 275.38 -146.14 765.66 1621.92 765.66 1621.92 472.14 1621.92 102.95 1621.92 -43.48 1621.92 -228.87 -146.14 -228.87"/>
    </clipPath>
  </defs>
  <g id="Layer_3" data-name="Layer 3">
    <g>
      <g class="cls-7">
        <path class="cls-8" d="m128.75,710c-1.4,2.46-4.52,3.29-6.65,5.16-.37.33-.74.81-.56,1.27.14.35.54.5.9.61,2.13.62,4.38.77,6.46,1.53,2.6.95,4.84,2.87,6.19,5.29,1.04,1.88,1.58,4.08,3.04,5.66,1.48-2.45.28-5.73,1.29-8.41,1.11-2.93,4.42-4.22,7.1-5.85.49-.3,1.03-.86.73-1.35-.11-.18-.31-.28-.5-.37-1.94-.88-4.14-1.1-6.03-2.1-2.85-1.51-4.53-4.56-5.65-7.58-.44-1.21-.84-2.46-1.61-3.49-.54-.72-2.01-2.03-3.05-1.66-1.04.37-1.01,2.36-1.03,3.34-.06,2.62.73,5.53-.65,7.95Z"/>
        <path class="cls-14" d="m151.61,683.91c-1.69,2.96-5.44,3.95-8,6.21-.45.39-.89.98-.67,1.53.17.42.65.6,1.08.73,2.56.75,5.27.93,7.78,1.84,3.13,1.14,5.83,3.45,7.44,6.37,1.25,2.27,1.9,4.92,3.66,6.81,1.79-2.95.33-6.9,1.56-10.12,1.34-3.53,5.32-5.08,8.55-7.04.59-.36,1.24-1.03.88-1.62-.13-.22-.37-.34-.6-.45-2.34-1.06-4.99-1.32-7.25-2.52-3.43-1.82-5.45-5.49-6.8-9.13-.53-1.45-1.01-2.96-1.93-4.2-.65-.87-2.42-2.44-3.67-2-1.25.44-1.22,2.84-1.24,4.02-.07,3.16.87,6.66-.79,9.57Z"/>
      </g>
      <g class="cls-4">
        <path class="cls-11" d="m1489.09,738.09c-1.91,1.54-4.68,1.23-6.98,2.07-.4.15-.85.42-.85.85,0,.32.28.57.53.77,1.52,1.17,3.29,2,4.74,3.26,1.8,1.58,3.01,3.83,3.33,6.21.25,1.85,0,3.79.68,5.52,1.97-1.51,2.02-4.54,3.68-6.38,1.82-2.01,4.9-2.02,7.57-2.49.49-.09,1.1-.37,1.01-.86-.03-.18-.16-.33-.29-.46-1.29-1.32-3-2.19-4.2-3.58-1.83-2.11-2.23-5.1-2.18-7.89.02-1.11.1-2.25-.2-3.32-.21-.75-.99-2.27-1.94-2.3-.95-.03-1.56,1.59-1.88,2.37-.87,2.1-1.15,4.69-3.02,6.21Z"/>
        <path class="cls-13" d="m1476.31,772.37c-1.49,1.21-3.66.96-5.46,1.62-.31.12-.67.33-.66.67,0,.25.22.45.42.6,1.19.91,2.58,1.56,3.7,2.55,1.41,1.24,2.35,3,2.6,4.86.19,1.44,0,2.97.53,4.32,1.54-1.18,1.58-3.55,2.88-4.99,1.42-1.58,3.83-1.58,5.92-1.95.38-.07.86-.29.79-.67-.02-.14-.13-.25-.23-.36-1.01-1.03-2.35-1.71-3.29-2.8-1.43-1.65-1.74-3.99-1.7-6.18.02-.87.08-1.76-.16-2.6-.16-.59-.77-1.77-1.52-1.8-.75-.02-1.22,1.24-1.47,1.86-.68,1.64-.9,3.67-2.37,4.86Z"/>
      </g>
      <g class="cls-2">
        <path class="cls-17" d="m703.25,116.48c-1.93,2.91-5.2,4.9-8.67,5.27-1.16.13-2.59.24-3.06,1.31-.37.84.13,1.84.84,2.43.7.59,1.59.92,2.34,1.45,2.36,1.65,3.01,4.87,2.95,7.75-.06,2.88-.62,5.82.09,8.61.08.33.19.67.43.92.74.78,2.07.16,2.8-.63,1.65-1.77,2.46-4.13,3.59-6.28,1.13-2.14,2.84-4.25,5.22-4.66.98-.17,2-.03,2.98-.2.98-.16,2.01-.76,2.19-1.74.18-.95-.51-1.85-1.23-2.49-1.34-1.2-3-2.1-3.98-3.61-2.03-3.12-.54-7.07-.65-10.49-.05-1.49-.21-4.28-2.11-3.55-1.65.64-2.82,4.52-3.74,5.91Z"/>
        <path class="cls-17" d="m680.41,94.2c-1.2,1.82-3.24,3.06-5.41,3.29-.72.08-1.61.15-1.91.82-.23.53.08,1.15.52,1.52.44.37.99.58,1.46.91,1.47,1.03,1.88,3.04,1.84,4.84-.04,1.8-.39,3.63.06,5.37.05.21.12.42.27.57.46.49,1.29.1,1.75-.39,1.03-1.1,1.54-2.58,2.24-3.91.7-1.34,1.77-2.65,3.26-2.91.61-.11,1.24-.02,1.86-.12s1.26-.48,1.37-1.09c.11-.59-.32-1.15-.77-1.55-.84-.75-1.87-1.31-2.48-2.25-1.27-1.94-.33-4.41-.41-6.54-.03-.93-.13-2.67-1.31-2.22-1.03.4-1.76,2.82-2.33,3.68Z"/>
      </g>
      <g class="cls-10">
        <g class="cls-9">
          <g class="cls-5">
            <g>
              <g>
                <path class="cls-18" d="m4.82,611.56c57.83-14.35,127.69-27.2,213.43-37.06,141.1-15.3,266.95-16.43,394.16-16.28,93.76,1.55,175.94,4.42,248.45,6.95,108.07,3.78,193.44,6.76,258.05,3.16,94.78-4.35,154.99-24.74,189.51-64.15,30.73-35.09,37.36-81,44.38-129.61l.75-5.19c11.13-84.07,26.41-199.17,231.62-248.24,31.41-6.58,63.19-10.82,95.43-12.75.35.82.69,1.64,1.04,2.46-32.41,1.89-64.36,6.13-95.92,12.74-203.47,48.64-218.65,162.78-229.68,246.14l-.75,5.2c-13.84,95.8-26.9,186.29-236.25,195.9-64.71,3.61-150.13.62-258.27-3.16-72.5-2.53-154.66-5.4-248.38-6.95-127.12-.15-252.89.98-393.85,16.27-64.36,7.4-138.03,17.98-213.15,36.87-.19-.77-.37-1.54-.55-2.3Z"/>
                <path class="cls-18" d="m2.08,600.43c74.63-19.61,148.95-31.15,217.77-39.84,140.9-16.81,267.38-19.66,395.3-21.27,90.44.24,170.27,1.78,240.7,3.15,111.62,2.16,199.78,3.87,266.03-1.01,94.94-6.11,155.36-27.7,190.14-67.94,30.96-35.82,37.83-82.05,45.1-130.99l.75-5.05c11.55-84.62,27.35-200.61,231.02-253.24,25.25-5.77,50.78-10,76.62-12.71.32.8.62,1.62.94,2.42-25.96,2.7-51.6,6.93-76.96,12.73-202.02,52.18-217.67,167.23-229.13,251.16l-.75,5.06c-11.7,78.74-22.86,153.91-140.64,186.22-26.5,7.27-58.41,12.37-96.92,14.85-66.36,4.88-154.57,3.17-266.25,1-70.42-1.36-150.23-2.91-240.63-3.15-127.84,1.61-254.24,4.46-395.01,21.25-68.74,8.68-142.96,20.21-217.48,39.79-.2-.82-.4-1.62-.6-2.44Z"/>
                <path class="cls-18" d="m-.55,589.89c76.1-20.91,152.03-33.55,222.31-43.2,152.31-19.83,293.44-23.59,396.51-26.33,87.03-.99,164.38-.7,232.62-.45,115.3.43,206.36.78,274.28-5.44,95.07-7.89,155.66-30.7,190.68-71.78,31.17-36.56,38.26-83.11,45.76-132.39l.75-4.93c11.94-85.2,28.28-201.88,230.22-258.17,19.51-4.83,39.21-8.7,59.09-11.67.3.8.6,1.6.91,2.4-19.98,2.96-39.76,6.84-59.35,11.7-200.32,55.84-216.53,171.58-228.38,256.11l-.75,4.94c-12.27,80.54-23.95,157.36-147.3,191.2-25.4,6.97-55.57,12.12-91.42,15.09-68.03,6.22-159.15,5.88-274.51,5.45-68.24-.26-145.57-.54-232.57.45-102.99,2.74-244.05,6.5-396.22,26.3-70.2,9.64-146.04,22.28-222.02,43.16-.2-.81-.41-1.63-.62-2.44Z"/>
                <path class="cls-18" d="m-3.18,579.53c77.65-22.26,155.29-36.05,227.12-46.71,152.06-21.44,288.3-27,397.78-31.46,83.57-2.13,158.35-3.03,224.34-3.82,119.05-1.42,213.08-2.55,282.68-10.17,95.16-9.68,155.89-33.71,191.12-75.63,31.36-37.31,38.65-84.18,46.37-133.8l.76-4.84c12.3-85.8,29.15-203.31,229.24-263.03,14.01-3.73,28.12-6.95,42.34-9.7.29.79.59,1.59.88,2.38-14.28,2.75-28.46,5.98-42.53,9.72-198.52,59.25-215.23,175.84-227.44,260.99l-.75,4.85c-15.22,97.8-29.59,190.16-239.72,211.55-69.71,7.63-163.79,8.76-282.91,10.19-65.98.79-140.76,1.68-224.29,3.82-109.41,4.46-245.57,10.01-397.5,31.44-71.75,10.65-149.31,24.43-226.86,46.67-.21-.81-.42-1.62-.62-2.44Z"/>
                <path class="cls-18" d="m-5.79,569.32c79.28-23.67,158.74-38.66,232.21-50.37,151.75-23.05,288.89-30.6,399.11-36.67,80.01-3.19,152.12-5.2,215.74-6.96,122.93-3.42,220.04-6.12,291.33-15.22,95.21-11.47,156.05-36.74,191.46-79.51,31.52-38.07,39-85.27,46.93-135.24l.76-4.77c12.63-86.43,29.93-204.79,228.07-267.78,8.62-2.46,17.28-4.72,25.99-6.79.3.79.59,1.58.89,2.38-8.76,2.08-17.47,4.35-26.15,6.82-196.61,62.5-213.77,179.97-226.31,265.76l-.76,4.78c-13.38,84.4-26.12,164.79-161.79,202-22.64,6.21-48.72,11.22-78.78,14.85-71.41,9.12-168.56,11.82-291.56,15.24-63.62,1.76-135.73,3.77-215.7,6.96-110.14,6.07-247.22,13.61-398.84,36.64-73.4,11.71-152.8,26.68-231.98,50.33-.21-.81-.42-1.63-.63-2.44Z"/>
              </g>
              <path class="cls-1" d="m468.53,599.36l11.87-44.09-1.21-.49-1.67-.68-26.05-10.56-2.87-1.17-3.78,14.06-6.81,25.29c-1.06-1.69-2.59-3.07-4.47-3.83-4.45-1.8-9.1.56-10.37,5.29-1.27,4.72,1.31,10.02,5.76,11.82,4.46,1.8,9.1-.56,10.37-5.29.19-.69.28-1.39.31-2.09l8.08-30.03,26.05,10.56-6.81,25.29c-1.06-1.69-2.6-3.07-4.47-3.83-4.45-1.8-9.1.56-10.37,5.29-1.27,4.73,1.31,10.02,5.76,11.82,4.45,1.81,9.09-.56,10.37-5.29.19-.69.28-1.39.31-2.09Z"/>
              <path class="cls-16" d="m1059.89,177.36l19.8-73.57-2.02-.82-2.78-1.13-43.47-17.62-4.8-1.95-6.31,23.46-11.36,42.2c-1.77-2.82-4.33-5.12-7.46-6.39-7.43-3.01-15.18.94-17.3,8.83-2.12,7.88,2.18,16.72,9.61,19.73,7.44,3.01,15.18-.94,17.3-8.83.31-1.15.47-2.32.51-3.49l13.49-50.11,43.47,17.62-11.36,42.2c-1.77-2.82-4.33-5.13-7.46-6.4-7.43-3.01-15.18.94-17.3,8.83-2.12,7.89,2.18,16.72,9.62,19.73,7.43,3.01,15.18-.94,17.3-8.82.31-1.15.47-2.32.52-3.49Z"/>
              <path class="cls-15" d="m404.72,505.48l-14.25-41.24-1.25.45-1.73.62-27.06,9.74-2.99,1.07,4.55,13.15,8.17,23.66c-1.79-.55-3.79-.55-5.74.15-4.63,1.67-7.14,6.6-5.61,11.02,1.52,4.42,6.51,6.65,11.14,4.99,4.63-1.67,7.14-6.6,5.61-11.02-.22-.65-.53-1.24-.89-1.78l-9.71-28.09,27.06-9.74,8.18,23.66c-1.79-.55-3.8-.55-5.74.15-4.62,1.67-7.14,6.6-5.61,11.02,1.53,4.42,6.52,6.66,11.15,4.99,4.62-1.67,7.14-6.6,5.61-11.02-.22-.64-.53-1.24-.88-1.78Z"/>
              <path class="cls-1" d="m1558.35-39.7l6.79,84.65c-3.42-2.46-7.66-3.79-12.16-3.47-10.16.71-17.72,9.5-16.91,19.61.81,10.11,9.69,17.74,19.85,17.02,10.14-.71,17.71-9.5,16.9-19.61l-7.91-98.66-6.56.46Z"/>
              <path class="cls-15" d="m205.25,572.3l-3.9,38.94c-1.34-1.49-3.15-2.56-5.21-2.91-4.65-.8-8.79,2.33-9.26,6.98-.47,4.65,2.92,9.07,7.58,9.87,4.65.8,8.79-2.33,9.25-6.98l4.54-45.38-3-.51Z"/>
              <path class="cls-1" d="m275.7,493.38l-.19,42.85c-1.73-1.47-3.97-2.43-6.42-2.59-5.51-.35-10,3.52-10.03,8.64-.02,5.12,4.43,9.56,9.95,9.91,5.52.35,10.01-3.52,10.03-8.64l.22-49.94-3.56-.23Z"/>
              <path class="cls-15" d="m1527.19,139.04l-40.71-69.79-2.24,1.2-3.11,1.66-48.52,25.97-5.36,2.87,12.98,22.26,23.35,40.04c-3.6-.44-7.43.19-10.92,2.06-8.3,4.44-11.48,14.1-7.12,21.59,4.37,7.48,14.63,9.95,22.92,5.5,8.29-4.43,11.48-14.1,7.12-21.58-.63-1.09-1.41-2.06-2.28-2.93l-27.73-47.54,48.52-25.97,23.35,40.04c-3.6-.44-7.43.2-10.92,2.06-8.3,4.44-11.48,14.1-7.12,21.59,4.37,7.48,14.62,9.95,22.92,5.51,8.29-4.44,11.48-14.1,7.12-21.58-.64-1.09-1.41-2.06-2.27-2.94Z"/>
              <path class="cls-3" d="m609.88,581.8l-.39-44.83h-1.3s-1.8,0-1.8,0h-28.11s-3.1,0-3.1,0l.13,14.3.22,25.72c-1.49-1.15-3.35-1.85-5.37-1.85-4.81,0-8.67,3.9-8.63,8.7.04,4.81,3.97,8.7,8.78,8.7,4.81,0,8.67-3.9,8.62-8.7,0-.7-.1-1.38-.26-2.03l-.27-30.54h28.11s.22,25.71.22,25.71c-1.49-1.16-3.35-1.85-5.37-1.85-4.8,0-8.67,3.9-8.63,8.71.04,4.81,3.97,8.7,8.78,8.7,4.81,0,8.67-3.89,8.63-8.7,0-.7-.1-1.38-.26-2.03Z"/>
              <path class="cls-6" d="m748.13,441.35l-10.83,47.32c-1.67-2.24-4.06-4.11-6.9-5.15-6.39-2.35-12.63.32-13.92,5.97-1.29,5.66,2.84,12.15,9.23,14.5,6.39,2.35,12.63-.32,13.92-5.98l12.63-55.15-4.13-1.52Z"/>
              <path class="cls-16" d="m1330.24-49.92l15.73,64.6c-3.42-1.72-7.49-2.54-11.61-2.08-9.27,1.04-15.27,8.13-13.39,15.85,1.88,7.72,10.93,13.14,20.2,12.11,9.27-1.04,15.27-8.13,13.39-15.85l-18.34-75.29-5.99.67Z"/>
              <path class="cls-6" d="m101.61,562.37l14.95-47.34-1.4-.46-1.94-.64-30.28-10.06-3.34-1.11-4.77,15.1-8.58,27.16c-1.2-1.75-2.97-3.15-5.15-3.87-5.18-1.72-10.67,1-12.28,6.07-1.6,5.08,1.3,10.58,6.47,12.3,5.17,1.72,10.67-1,12.27-6.07.24-.74.36-1.49.41-2.24l10.19-32.25,30.28,10.06-8.58,27.16c-1.2-1.75-2.97-3.15-5.15-3.87-5.18-1.72-10.67,1-12.28,6.07-1.6,5.08,1.29,10.58,6.47,12.3,5.17,1.72,10.67-1,12.28-6.07.23-.74.36-1.49.41-2.24Z"/>
            </g>
          </g>
        </g>
      </g>
    </g>
  </g>
</svg>