<?xml version="1.0" encoding="UTF-8"?>
<svg id="Layer_2" xmlns="http://www.w3.org/2000/svg" version="1.1" viewBox="0 0 25.3 25.3">
  <!-- Generator: Adobe Illustrator 29.1.0, SVG Export Plug-In . SVG Version: 2.1.0 Build 142)  -->
  <defs>
    <style>
      .st0 {
        fill: #fff;
      }

      .st1 {
        fill: none;
      }
    </style>
  </defs>
  <g id="text">
    <g>
      <path class="st0" d="M3.3,5.7c-.2,0-.5,0-.7.1l9.6,8.5c.2.2.7.2.9,0l9.6-8.6c-.2,0-.4-.1-.7-.1,0,0-18.7,0-18.7,0ZM1.9,6.6c-.1.2-.2.5-.2.7v10.7c0,.3,0,.5.2.7l7.1-5.8L1.9,6.6h0ZM23.5,6.6l-7,6.3,7,5.8c.1-.2.2-.5.2-.7V7.3c0-.3,0-.5-.2-.7h0ZM9.7,13.6l-7.1,5.8c.2,0,.4.1.7.1h18.7c.2,0,.5,0,.6-.1l-7.1-5.9-1.8,1.6c-.7.6-1.7.6-2.4,0,0,0-1.8-1.6-1.8-1.6Z"/>
      <rect class="st1" width="25.3" height="25.3"/>
    </g>
  </g>
</svg>