<?xml version="1.0" encoding="UTF-8"?>
<svg id="Layer_1" data-name="Layer 1" xmlns="http://www.w3.org/2000/svg" viewBox="0 0 100 100">
  <defs>
    <style>
      .cls-1 {
        fill: #00a1d8;
      }
    </style>
  </defs>
  <path class="cls-1" d="M95.28,31.59l.46,1.89-.2,53.9-.91.91H3.92l-.91-.91.14-55.64c.77-1.22,5.51-.2,6.95-.76,1.01-.7-.47-4.52.92-5.61,1.28-1.01,6.58-2.26,8.36-2.53,11-1.65,20.79,1.92,30.02,7.5,9.94-6.43,21.26-9.74,33.06-6.8.97.24,4.8,1.41,5.29,1.97.98,1.11-.24,4.82.7,5.47l6.83.61ZM47.46,82.68v-48.45c-9.25-7.13-22.18-10.13-33.39-5.99v49.36c7.85-2.31,16.45-2.03,24.14.72,3.23,1.15,6.16,2.92,9.25,4.36ZM84.48,28.24c-11.21-4.14-24.14-1.14-33.39,5.99v48.45c3.09-1.44,6.02-3.22,9.25-4.36,7.71-2.73,16.28-3.04,24.14-.72V28.24ZM42.02,84.49c-1.66-1.44-4.47-2.37-6.62-3-5.29-1.56-10.14-2.13-15.6-1.25-1.83.3-7.36,2.3-8.37,2.01-.26-.07-.48-.25-.66-.45l-.33-46.13-.6-.86-3.03-.05v49.72h35.2ZM91.74,34.77l-3.03.05-.6.86-.33,46.13c-.18.2-.4.38-.66.45-1.02.28-6.55-1.72-8.37-2.01-6.52-1.06-12.71.03-18.83,2.37l-3.38,1.88h35.2v-49.72Z"/>
</svg>