<?xml version="1.0" encoding="UTF-8"?>
<svg id="Layer_2" data-name="Layer 2" xmlns="http://www.w3.org/2000/svg" viewBox="0 0 64.67 64.67">
  <defs>
    <style>
      .cls-1 {
        fill: #fff;
      }

      .cls-2 {
        fill: #ffa44a;
      }

      .cls-3 {
        fill: #ffa14a;
      }
    </style>
  </defs>
  <g id="text">
    <g>
      <g>
        <circle class="cls-1" cx="32.33" cy="32.33" r="30.33"/>
        <path class="cls-3" d="M32.33,64.67C14.5,64.67,0,50.16,0,32.33S14.5,0,32.33,0s32.33,14.5,32.33,32.33-14.5,32.33-32.33,32.33ZM32.33,4c-15.62,0-28.33,12.71-28.33,28.33s12.71,28.33,28.33,28.33,28.33-12.71,28.33-28.33S47.96,4,32.33,4Z"/>
      </g>
      <g>
        <path class="cls-2" d="M27.88,33.4c-.55,0-1.01-.45-1.01-1s.44-1,.99-1h.01c.55,0,1,.45,1,1s-.45,1-1,1Z"/>
        <path class="cls-2" d="M36.82,33.4c-.55,0-1.01-.45-1.01-1s.44-1,.99-1h.01c.55,0,1,.45,1,1s-.45,1-1,1Z"/>
        <path class="cls-2" d="M32.33,40.1c-1.3,0-2.54-.32-3.5-.89-.47-.28-.63-.9-.34-1.37.28-.47.9-.63,1.37-.34,1.28.77,3.66.77,4.93,0,.47-.28,1.09-.13,1.37.34s.13,1.09-.34,1.37c-.95.57-2.2.89-3.5.89Z"/>
        <path class="cls-2" d="M32.34,46.68c-1,0-2.01-.1-3.02-.32-5.39-1.16-9.65-5.3-10.97-10.63-.74-.48-1.29-1.18-1.59-2.03-.35-1-.29-2.08.18-3.04.31-.65.8-1.2,1.4-1.59,1.53-6.44,7.34-11.07,13.99-11.08,3.55,0,6.22,2.03,6.22,4.73s-1.75,4.73-3.98,4.73c-1.84,0-3.24-1.07-3.24-2.49,0-.55.45-1,1-1s1,.45,1,1c0,.17.48.49,1.24.49,1.09,0,1.98-1.22,1.98-2.73s-1.85-2.73-4.22-2.73c-5.86.01-10.96,4.19-12.14,9.93-.06.31-.26.56-.54.7-.4.19-.73.52-.92.92-.23.48-.26,1.01-.09,1.51.17.5.53.9,1.01,1.13.28.13.48.39.54.69,1.02,4.77,4.77,8.51,9.54,9.54,6.69,1.43,13.31-2.84,14.74-9.54.06-.3.26-.56.54-.69.4-.19.73-.52.92-.92.23-.48.26-1.01.09-1.51-.17-.5-.53-.9-1.01-1.13-.28-.14-.49-.4-.55-.71-.38-1.96-1.24-3.82-2.48-5.38-.34-.43-.27-1.06.16-1.41.43-.34,1.06-.27,1.41.16,1.35,1.69,2.31,3.68,2.79,5.79.73.48,1.28,1.18,1.58,2.02.35,1,.29,2.08-.18,3.04-.31.65-.81,1.2-1.41,1.6-1.61,6.52-7.49,10.95-13.99,10.95Z"/>
      </g>
    </g>
  </g>
</svg>