<?xml version="1.0" encoding="UTF-8"?>
<svg id="Layer_1" data-name="Layer 1" xmlns="http://www.w3.org/2000/svg" viewBox="0 0 100 100">
  <defs>
    <style>
      .cls-1 {
        fill: #808285;
        stroke-width: 0px;
      }
    </style>
  </defs>
  <path class="cls-1" d="M49.85,54.46c-10.97,0-21.94,0-32.92,0-.8,0-1.64,0-2.41-.19-2.11-.53-3.52-2.65-3.34-4.83.19-2.21,1.89-3.96,4.09-4.2.5-.05,1.01-.06,1.51-.06,22.15,0,44.29,0,66.44,0,3.01,0,4.64,1,5.37,3.24.91,2.79-.95,5.68-3.87,5.98-.65.07-1.31.06-1.97.06-10.97,0-21.94,0-32.92,0Z"/>
</svg>