<?xml version="1.0" encoding="UTF-8"?>
<svg id="Layer_2" data-name="Layer 2" xmlns="http://www.w3.org/2000/svg" viewBox="0 0 29.28 29.28">
  <defs>
    <style>
      .cls-1 {
        fill: #fff;
      }
    </style>
  </defs>
  <g id="text">
    <path class="cls-1" d="m14.64,0C6.57,0,0,6.57,0,14.64s6.57,14.64,14.64,14.64,14.64-6.57,14.64-14.64S22.71,0,14.64,0Zm7.15,11.79c0,.15.01.3.01.46,0,4.66-3.55,10.03-10.03,10.03-1.99,0-3.85-.58-5.4-1.58.28.03.56.05.84.05,1.65,0,3.17-.56,4.38-1.51-1.54-.03-2.84-1.05-3.29-2.45.22.04.44.06.66.06.32,0,.63-.04.93-.12-1.61-.33-2.83-1.75-2.83-3.46v-.04c.48.26,1.02.42,1.6.44-.95-.63-1.57-1.71-1.57-2.93,0-.65.17-1.25.48-1.77,1.74,2.13,4.34,3.54,7.27,3.68-.06-.26-.09-.53-.09-.8,0-1.95,1.58-3.53,3.53-3.53,1.01,0,1.93.43,2.57,1.11.8-.16,1.56-.45,2.24-.85-.26.82-.82,1.51-1.55,1.95.71-.09,1.39-.27,2.03-.56-.47.71-1.07,1.33-1.76,1.83Z"/>
  </g>
</svg>