<?xml version="1.0" encoding="UTF-8"?>
<svg id="Layer_2" data-name="Layer 2" xmlns="http://www.w3.org/2000/svg" xmlns:xlink="http://www.w3.org/1999/xlink" viewBox="0 0 416.99 96.09">
  <defs>
    <style>
      .cls-1 {
        fill: #70348f;
      }

      .cls-2 {
        filter: url(#drop-shadow-1);
      }

      .cls-3 {
        fill: #018ed6;
      }

      .cls-4 {
        fill: #b1cb35;
      }

      .cls-5 {
        fill: #ffa14a;
      }

      .cls-6 {
        fill: #e32526;
      }

      .cls-7 {
        fill: #009ed5;
      }
    </style>
    <filter id="drop-shadow-1" x="-13.84" y="-13.73" width="448" height="127" filterUnits="userSpaceOnUse">
      <feOffset dx="2" dy="2"/>
      <feGaussianBlur result="blur" stdDeviation="5"/>
      <feFlood flood-color="#000" flood-opacity=".45"/>
      <feComposite in2="blur" operator="in"/>
      <feComposite in="SourceGraphic"/>
    </filter>
  </defs>
  <g id="text">
    <g class="cls-2">
      <path class="cls-3" d="M289.51,92.77l6.83-17.37-.47-.25-.65-.35-10.1-5.48-1.12-.61-2.18,5.54-3.92,9.97c-.35-.74-.91-1.37-1.64-1.76-1.73-.94-3.72-.19-4.45,1.68-.73,1.86.07,4.13,1.8,5.07,1.73.94,3.72.19,4.45-1.68.11-.27.18-.55.22-.84l4.66-11.83,10.1,5.48-3.92,9.97c-.35-.74-.91-1.37-1.64-1.76-1.73-.94-3.72-.19-4.45,1.68-.73,1.86.07,4.13,1.8,5.07,1.73.94,3.72.19,4.45-1.68.11-.27.18-.55.22-.84Z"/>
      <path class="cls-4" d="M268.42,48.49l-3.91-17.41-.53.13-.73.17-11.44,2.72-1.26.3,1.25,5.55,2.24,9.99c-.7-.31-1.52-.4-2.34-.2-1.96.47-3.2,2.36-2.78,4.22.42,1.87,2.34,3,4.3,2.54,1.96-.47,3.2-2.36,2.78-4.22-.06-.27-.16-.53-.28-.77l-2.66-11.86,11.44-2.72,2.24,9.99c-.7-.31-1.52-.4-2.34-.2-1.95.47-3.2,2.36-2.78,4.22.42,1.87,2.34,3,4.3,2.54,1.96-.47,3.2-2.36,2.78-4.22-.06-.27-.16-.53-.28-.76Z"/>
      <path class="cls-7" d="M188.21,38.25l-8.08,37.61c-1.15-1.6-2.8-2.84-4.77-3.42-4.46-1.29-8.85,1.31-9.81,5.8-.97,4.49,1.86,9.18,6.32,10.47,4.45,1.29,8.84-1.31,9.81-5.8l9.42-43.84-2.87-.83Z"/>
      <path class="cls-1" d="M215.98,40.9l-2.03,17.4c-.64-.68-1.5-1.17-2.49-1.34-2.22-.39-4.23.97-4.47,3.05-.24,2.08,1.37,4.09,3.59,4.48,2.23.39,4.23-.97,4.47-3.05l2.37-20.28-1.44-.25Z"/>
      <path class="cls-5" d="M64.96,55.22L50.76,0l-1.76.38-2.43.53L8.63,9.2l-4.19.91,4.53,17.61,8.15,31.68c-2.36-.99-5.08-1.3-7.81-.7-6.49,1.42-10.51,7.36-8.99,13.28,1.53,5.92,8.02,9.57,14.5,8.15,6.48-1.41,10.51-7.36,8.99-13.28-.22-.87-.56-1.67-.98-2.43L13.16,26.81l37.94-8.29,8.15,31.68c-2.36-.99-5.08-1.3-7.81-.7-6.49,1.42-10.51,7.37-8.99,13.29,1.53,5.92,8.01,9.57,14.5,8.15,6.48-1.42,10.51-7.37,8.99-13.28-.22-.86-.56-1.67-.98-2.43Z"/>
      <path class="cls-5" d="M347.75,92.09l1.89-18.23-.53-.06-.73-.08-11.42-1.28-1.26-.14-.6,5.82-1.08,10.46c-.55-.54-1.28-.9-2.1-1-1.95-.22-3.7,1.19-3.9,3.14-.2,1.96,1.22,3.72,3.17,3.93,1.95.22,3.7-1.19,3.9-3.14.03-.29.02-.57-.01-.84l1.28-12.42,11.42,1.28-1.08,10.46c-.55-.54-1.28-.9-2.1-1-1.95-.22-3.7,1.19-3.9,3.14-.2,1.96,1.22,3.72,3.17,3.93,1.95.22,3.7-1.19,3.9-3.14.03-.29.02-.56-.01-.84Z"/>
      <path class="cls-6" d="M415.39,40.22l-6.56,18.73c-.58-.99-1.46-1.85-2.57-2.41-2.49-1.25-5.15-.45-5.93,1.79-.78,2.24.6,5.07,3.09,6.32,2.49,1.25,5.15.45,5.93-1.79l7.65-21.83-1.61-.81Z"/>
      <path class="cls-6" d="M110.96,62.56l11.58-26.09-.77-.36-1.07-.49-16.65-7.69-1.84-.85-3.69,8.32-6.64,14.96c-.58-1.08-1.5-1.99-2.69-2.54-2.85-1.31-6.16-.11-7.4,2.68-1.24,2.8.06,6.13,2.91,7.44,2.85,1.31,6.16.12,7.4-2.68.18-.41.3-.83.38-1.25l7.89-17.77,16.65,7.69-6.64,14.96c-.58-1.08-1.5-1.99-2.69-2.54-2.85-1.32-6.16-.11-7.4,2.68-1.24,2.8.06,6.13,2.91,7.44,2.85,1.31,6.16.11,7.4-2.68.18-.41.3-.83.38-1.25Z"/>
    </g>
  </g>
</svg>