<?xml version="1.0" encoding="UTF-8"?>
<svg id="Layer_2" data-name="Layer 2" xmlns="http://www.w3.org/2000/svg" viewBox="0 0 39.76 39.76">
  <defs>
    <style>
      .cls-1 {
        fill: none;
      }

      .cls-2 {
        fill: #ffa14a;
      }
    </style>
  </defs>
  <g id="text">
    <g>
      <g>
        <path class="cls-2" d="M24.23,23.86c-.07,0-.14,0-.21-.02-.58-.12-.96-.68-.85-1.27.37-1.87,1.41-3.12,2.47-4.18,1.2-1.08,1.86-2.64,1.86-4.31,0-4.2-3.42-7.62-7.62-7.62s-7.62,3.42-7.62,7.62c0,1.21.22,2.67,1.86,4.31.88.88,2.09,2.27,2.47,4.18.12.58-.26,1.15-.85,1.27-.58.12-1.15-.26-1.27-.85-.21-1.03-.79-1.98-1.88-3.08-2.21-2.21-2.49-4.28-2.49-5.84,0-5.39,4.39-9.78,9.78-9.78s9.78,4.39,9.78,9.78c0,2.29-.92,4.43-2.53,5.88-1.11,1.11-1.62,1.95-1.84,3.04-.1.51-.55.87-1.06.87Z"/>
        <path class="cls-2" d="M24.23,29.66h-8.7c-.6,0-1.08-.48-1.08-1.08s.48-1.08,1.08-1.08h8.7c.6,0,1.08.48,1.08,1.08s-.48,1.08-1.08,1.08Z"/>
        <path class="cls-2" d="M22.78,35.46h-5.8c-.6,0-1.08-.48-1.08-1.08s.48-1.08,1.08-1.08h5.8c.6,0,1.08.48,1.08,1.08s-.48,1.08-1.08,1.08Z"/>
      </g>
      <rect class="cls-1" width="39.76" height="39.76"/>
    </g>
  </g>
</svg>