<?xml version="1.0" encoding="UTF-8"?>
<svg id="Layer_1" data-name="Layer 1" xmlns="http://www.w3.org/2000/svg" viewBox="0 0 100 100">
  <defs>
    <style>
      .cls-1 {
        fill: #009ed5;
      }
    </style>
  </defs>
  <path class="cls-1" d="M95.73,3.85c-.81-.68-1.88-.98-2.92-.8l-57.87,9.64c-1.74.29-3.01,1.79-3.01,3.55v48.3c-3.03-2.29-6.79-3.67-10.87-3.67-9.96,0-18.07,8.1-18.07,18.06s8.1,18.07,18.07,18.07,18.07-8.1,18.07-18.07v-40.35l50.67-8.45v24.76c-3.03-2.29-6.79-3.67-10.87-3.67-9.96,0-18.07,8.1-18.07,18.06s8.1,18.07,18.07,18.07,18.07-8.1,18.07-18.07V6.6c0-1.06-.46-2.06-1.27-2.75ZM21.07,89.8c-5.99,0-10.87-4.88-10.87-10.87s4.88-10.87,10.87-10.87,10.87,4.87,10.87,10.87-4.88,10.87-10.87,10.87ZM39.13,31.29v-12l50.67-8.44v11.99l-50.67,8.45ZM78.93,80.16c-5.99,0-10.87-4.88-10.87-10.87s4.88-10.87,10.87-10.87,10.87,4.87,10.87,10.87-4.88,10.87-10.87,10.87Z"/>
</svg>