<?xml version="1.0" encoding="UTF-8"?>
<svg id="Layer_2" data-name="Layer 2" xmlns="http://www.w3.org/2000/svg" viewBox="0 0 64.67 64.67">
  <defs>
    <style>
      .cls-1 {
        fill: #fff;
      }

      .cls-2 {
        fill: #e32526;
      }
    </style>
  </defs>
  <g id="text">
    <g>
      <g>
        <circle class="cls-1" cx="32.33" cy="32.33" r="30.33"/>
        <path class="cls-2" d="M32.33,64.67C14.5,64.67,0,50.16,0,32.33S14.5,0,32.33,0s32.33,14.5,32.33,32.33-14.5,32.33-32.33,32.33ZM32.33,4c-15.62,0-28.33,12.71-28.33,28.33s12.71,28.33,28.33,28.33,28.33-12.71,28.33-28.33S47.96,4,32.33,4Z"/>
      </g>
      <path class="cls-2" d="M26.56,41.38c-.55,0-1-.45-1-1v-17.43c0-.49.35-.91.84-.99l16.09-2.68c.29-.05.59.03.81.22.22.19.35.47.35.76v17.43c0,.55-.45,1-1,1s-1-.45-1-1v-16.24l-14.09,2.35v16.58c0,.55-.45,1-1,1Z"/>
      <path class="cls-2" d="M26.56,29.31c-.48,0-.9-.35-.99-.84-.09-.54.28-1.06.82-1.15l16.09-2.68c.54-.09,1.06.28,1.15.82.09.54-.28,1.06-.82,1.15l-16.09,2.68c-.06,0-.11.01-.17.01Z"/>
      <path class="cls-2" d="M22.54,45.4c-2.77,0-5.02-2.25-5.02-5.02s2.25-5.02,5.02-5.02,5.02,2.25,5.02,5.02-2.25,5.02-5.02,5.02ZM22.54,37.35c-1.67,0-3.02,1.35-3.02,3.02s1.36,3.02,3.02,3.02,3.02-1.36,3.02-3.02-1.36-3.02-3.02-3.02Z"/>
      <path class="cls-2" d="M38.63,42.72c-2.77,0-5.02-2.25-5.02-5.02s2.25-5.02,5.02-5.02,5.02,2.25,5.02,5.02-2.25,5.02-5.02,5.02ZM38.63,34.67c-1.67,0-3.02,1.35-3.02,3.02s1.36,3.02,3.02,3.02,3.02-1.36,3.02-3.02-1.36-3.02-3.02-3.02Z"/>
    </g>
  </g>
</svg>