<?xml version="1.0" encoding="UTF-8"?>
<svg id="Layer_1" data-name="Layer 1" xmlns="http://www.w3.org/2000/svg" viewBox="0 0 100 100">
  <defs>
    <style>
      .cls-1 {
        fill: #b4ce35;
      }
    </style>
  </defs>
  <path class="cls-1" d="M41.08,78.8c-3.85-1.31-7.89-.34-11.76-.7-3.74-.35-5.88-4.96-8.84-6.97-3.88-.48-8.44.39-12.23-.06-1.99-.24-2.82-1.03-2.99-2.98-.81-8.94.65-19.07,0-28.13l1.43-2.08,20.88-.19c2.9-2.41,5.9-4.87,9.85-5.26,4.67-.46,15.76-.53,20.37,0,5.59.63,9.28,7.59,13.77,10.47l22.22.26,1.23,1.23-.07,30.47c-1.33,2.85-11.28.77-14.14,1.67l-16.19,13.67c-5.09,3.24-9.8,1.45-12.48-3.61-5.54,2.02-11.22-1.8-11.05-7.77ZM29.33,42.96H10.54v22.83h12.12c1.82,1.18,5.27,6.12,6.86,6.84,1.22.55,3.53-.02,4.91.18.53-2.66-2.35-2.18-4.19-3.72-.73-.61-1.45-1.52-1.85-2.37-2.14-4.52-.43-7.5,2.87-10.6,4.81-4.53,10.8-8.6,15.79-13.01l9.26-.08c1.73.52,7.25,8.18,9.47,9.15,2.48,1.07,4.8-1.48,3.44-3.79-3-2.15-8.5-10-11.87-10.61-2.99-.55-16.74-.48-19.85,0-3.68.57-5.16,3.65-8.16,5.18ZM74.81,48.23c1.09,7.21-6.47,12.3-12.61,7.87-2.03-1.46-6.22-6.99-7.76-7.69-.73-.33-4.51-.31-5.35-.1l-15.21,12.54c-1.99,1.38-1.02,4.53,1.15,4.87,2.67.42,8.21-7.21,10.81-7.27,1.9-.04,3.26,2.09,2.46,3.82-.17.37-1.81,1.86-2.27,2.29-1.49,1.4-6.05,4.23-6.31,5.99-.29,1.98,1.03,3.6,3.07,3.09,2.69-.68,7.41-7.01,9.77-7.15,2.21-.13,3.3,2.46,2.22,4.35-1.57,2.74-13.48,7.83-6.02,11.04,2.51.21,8.16-7.15,10.47-7.31,1-.07,2.33.96,2.7,1.86,1.29,3.08-4.44,4.5-4.69,7.09-.23,2.38,2.29,3.82,4.23,2.45,2.4-1.44,16.59-14.91,17.75-14.91h10.71v-22.83h-15.1Z"/>
  <path class="cls-1" d="M29.75,14.59c.86-.25,1.97-.19,2.76.26.46.27,7.29,7.09,7.55,7.55,1.5,2.62-.78,5.04-3.53,3.88-1.66-.71-5.76-6.48-7.75-7.7-.73-1.17-.52-3.55.97-3.98Z"/>
  <path class="cls-1" d="M68.38,14.59c2.67-.8,4.53,1.21,3.43,3.78-.22.51-7.39,7.68-7.9,7.9-2.68,1.14-4.8-1.02-3.67-3.67.22-.53,7.59-7.85,8.14-8.01Z"/>
  <path class="cls-1" d="M52.23,8.99c1.08,1.27,1.05,8.73.72,10.53-.64,3.55-4.82,3.53-5.45,0-.32-1.8-.32-9.02.61-10.38.83-1.22,3.17-1.27,4.12-.15Z"/>
</svg>