<?xml version="1.0" encoding="UTF-8"?>
<svg id="Layer_1" data-name="Layer 1" xmlns="http://www.w3.org/2000/svg" viewBox="0 0 100 100">
  <defs>
    <style>
      .cls-1 {
        fill: #e62526;
      }
    </style>
  </defs>
  <path class="cls-1" d="M49.64,22.54l.76-.23c14.08-26.39,49.45-13.42,47.08,15.59-1.78,21.86-31.41,39.3-45.64,53.5-1.07.81-2.6.82-3.68,0C33.82,77.1,3.75,59.43,2.46,37.22.78,8.34,36.13-3.79,49.64,22.54ZM25.42,13.73c-14.27,1.61-20.11,17.28-15.89,29.79,4.2,12.44,28.07,32.2,38.82,40.64.4.31,1.35,1.13,1.78,1.06,10.46-9.29,22.73-18.05,32-28.52,9.25-10.44,15.05-26.35,3.54-37.71-11.21-11.06-24.83-4.54-31.35,7.67-1.31,2.45-1.54,6.62-5.16,5.82-1.83-.4-2.6-4.19-3.47-5.82-4.31-8.08-10.33-14.06-20.27-12.94Z"/>
</svg>