<?xml version="1.0" encoding="UTF-8"?>
<svg id="Layer_2" xmlns="http://www.w3.org/2000/svg" version="1.1" viewBox="0 0 25.3 25.3">
  <!-- Generator: Adobe Illustrator 29.1.0, SVG Export Plug-In . SVG Version: 2.1.0 Build 142)  -->
  <defs>
    <style>
      .st0 {
        fill: #fff;
        fill-rule: evenodd;
      }

      .st1 {
        fill: none;
      }
    </style>
  </defs>
  <g id="text">
    <g>
      <path class="st0" d="M8.4,11.8c1.1,2.4,2.7,4,5.1,5.1.4.2.9,0,1.1-.4l.4-.8c.2-.4.6-.5,1-.4l4.4,1.1c.4,0,.6.4.6.8v2.9c0,.4-.4.8-.8.8h-2.1c-7.5,0-13.6-6.1-13.6-13.6v-2c0-.5.3-.9.9-.9h2.8c.4,0,.7.3.9.6l1.1,4.4c0,.4,0,.8-.4,1l-.8.4c-.4.2-.5.6-.4,1h-.2Z"/>
      <rect class="st1" width="25.3" height="25.3"/>
    </g>
  </g>
</svg>