<?xml version="1.0" encoding="UTF-8"?>
<svg id="Layer_2" data-name="Layer 2" xmlns="http://www.w3.org/2000/svg" viewBox="0 0 15.79 15.79">
  <defs>
    <style>
      .cls-1 {
        fill: #333;
      }
    </style>
  </defs>
  <g id="text">
    <path class="cls-1" d="m15.64,14.9l-4.5-4.5c.93-1.1,1.5-2.52,1.5-4.08,0-3.48-2.83-6.32-6.32-6.32S0,2.83,0,6.32s2.83,6.32,6.32,6.32c1.55,0,2.98-.56,4.08-1.5l4.5,4.5c.1.1.24.15.37.15s.27-.05.37-.15c.21-.21.21-.54,0-.74ZM1.05,6.32C1.05,3.41,3.41,1.05,6.32,1.05s5.26,2.36,5.26,5.26-2.36,5.26-5.26,5.26S1.05,9.22,1.05,6.32Z"/>
  </g>
</svg>