<?xml version="1.0" encoding="UTF-8"?>
<svg id="Layer_2" data-name="Layer 2" xmlns="http://www.w3.org/2000/svg" viewBox="0 0 64.67 64.67">
  <defs>
    <style>
      .cls-1 {
        fill: #fff;
      }

      .cls-2 {
        fill: #b1cb35;
      }
    </style>
  </defs>
  <g id="text">
    <g>
      <g>
        <circle class="cls-1" cx="32.33" cy="32.33" r="30.33"/>
        <path class="cls-2" d="M32.33,64.67C14.5,64.67,0,50.16,0,32.33S14.5,0,32.33,0s32.33,14.5,32.33,32.33-14.5,32.33-32.33,32.33ZM32.33,4c-15.62,0-28.33,12.71-28.33,28.33s12.71,28.33,28.33,28.33,28.33-12.71,28.33-28.33S47.96,4,32.33,4Z"/>
      </g>
      <g>
        <path class="cls-2" d="M32.21,34.53c-.28,0-.56-.11-.77-.32-.43-.43-.43-1.12,0-1.54l6.35-6.35c.43-.43,1.12-.43,1.54,0,.43.43.43,1.12,0,1.54l-6.35,6.35c-.21.21-.49.32-.77.32Z"/>
        <path class="cls-2" d="M38.55,28.18c-.28,0-.56-.11-.77-.32-.43-.43-.43-1.12,0-1.54h0c.32-.32.5-.76.5-1.22v-1.89c0-1.04.41-2.02,1.14-2.76l1.57-1.57c.97-.95,2.54-.95,3.5,0h0s2.25,2.26,2.25,2.26c.95.97.95,2.54,0,3.5l-1.57,1.57c-.74.74-1.72,1.14-2.76,1.14h-1.89c-.46,0-.89.18-1.22.51h0c-.21.21-.49.32-.77.32ZM42.75,20.35c-.08,0-.16.03-.22.09l-1.56,1.56c-.32.32-.5.76-.5,1.22v1.89s0,.05,0,.07c.02,0,.05,0,.07,0h1.89c.45,0,.9-.18,1.22-.5l1.57-1.57c.11-.11.11-.31,0-.43l-2.24-2.24c-.06-.06-.14-.09-.22-.09Z"/>
        <path class="cls-2" d="M26.72,42.83c-.28,0-.56-.11-.77-.32l-2.81-2.81c-.43-.43-.43-1.12,0-1.54.43-.43,1.12-.43,1.54,0l2.81,2.81c.43.43.43,1.12,0,1.54-.21.21-.49.32-.77.32Z"/>
        <path class="cls-2" d="M26.72,48.45c-5.25,0-9.53-4.27-9.53-9.53,0-3.7,3.01-6.72,6.72-6.72.65-.01,1.26-.42,1.53-1.03l.57-1.27s0,0,0,0c.9-1.98,2.88-3.31,4.93-3.31,4.55,0,8.12,3.57,8.12,8.12,0,2.05-1.33,4.03-3.31,4.93l-1.27.57c-.62.27-1.03.88-1.04,1.55,0,3.68-3.01,6.7-6.72,6.7ZM28,30.79l-.56,1.26c-.61,1.39-1.99,2.31-3.51,2.34-2.52,0-4.55,2.03-4.55,4.54,0,4.05,3.3,7.35,7.35,7.35,2.5,0,4.54-2.03,4.54-4.54.03-1.54.94-2.92,2.34-3.53l1.26-.56c1.21-.55,2.02-1.73,2.02-2.94,0-3.33-2.61-5.94-5.94-5.94-1.21,0-2.39.82-2.94,2.03Z"/>
        <g>
          <circle class="cls-2" cx="31.64" cy="34" r=".7"/>
          <path class="cls-2" d="M31.64,35.8c-.99,0-1.79-.8-1.79-1.79s.8-1.79,1.79-1.79,1.79.8,1.79,1.79-.8,1.79-1.79,1.79ZM31.64,33.62c-.21,0-.39.17-.39.39s.17.39.39.39.39-.17.39-.39-.17-.39-.39-.39Z"/>
        </g>
      </g>
    </g>
  </g>
</svg>