<?xml version="1.0" encoding="UTF-8"?>
<svg id="Layer_2" data-name="Layer 2" xmlns="http://www.w3.org/2000/svg" viewBox="0 0 39.76 39.76">
  <defs>
    <style>
      .cls-1 {
        fill: none;
      }

      .cls-2 {
        fill: #b4ce35;
      }
    </style>
  </defs>
  <g id="text">
    <g>
      <g>
        <path class="cls-2" d="M14.22,35.05c-.28,0-.57-.02-.86-.06-3.43-.44-5.92-3.43-5.81-6.81-.5-.35-.95-.77-1.34-1.25-2.15-2.65-1.93-6.46.39-8.84-.1-.25-.19-.52-.25-.78-.85-3.31.95-6.69,4.07-7.88.12-1.2.65-2.31,1.52-3.18.99-.98,2.3-1.53,3.7-1.53h.02c2.89,0,5.24,2.37,5.23,5.26v18.42c0,.29-.02.57-.06.85-.43,3.36-3.31,5.81-6.61,5.81ZM15.63,6.71c-.86,0-1.68.34-2.29.95-.62.61-.96,1.43-.96,2.29l.04.97-.79.2c-2.49.64-4,3.19-3.36,5.68.09.37.23.72.41,1.05l.39.73-.64.52c-2,1.62-2.3,4.57-.68,6.56.37.46.82.83,1.33,1.12l.59.33-.09.67c-.33,2.55,1.48,4.9,4.03,5.23,2.55.33,4.9-1.48,5.23-4.03.03-.2.04-.4.04-.59V9.97c0-1.79-1.45-3.25-3.24-3.26h0Z"/>
        <path class="cls-2" d="M25.54,35.05c-3.3,0-6.17-2.46-6.61-5.81-.04-.28-.05-.56-.05-.85V9.98c0-1.4.54-2.72,1.53-3.71.99-.99,2.31-1.54,3.71-1.55h.02c1.4,0,2.71.54,3.7,1.53.87.86,1.4,1.97,1.52,3.18,3.12,1.19,4.92,4.57,4.07,7.88-.07.27-.15.53-.25.78,2.32,2.39,2.54,6.2.39,8.84-.39.48-.84.9-1.34,1.25.11,3.38-2.38,6.37-5.81,6.81-.29.04-.58.06-.86.06ZM24.13,6.71h0c-.87,0-1.68.34-2.29.96-.61.62-.95,1.43-.95,2.3v18.42c0,.2.01.4.04.59.33,2.55,2.67,4.36,5.23,4.03,2.55-.33,4.36-2.67,4.03-5.23l-.09-.67.59-.33c.51-.29.96-.67,1.33-1.12,1.62-2,1.32-4.94-.68-6.56l-.64-.52.39-.73c.18-.33.32-.68.41-1.05.64-2.49-.87-5.04-3.36-5.68l-.79-.2.04-.97c0-.87-.34-1.68-.96-2.3-.61-.61-1.43-.95-2.29-.95Z"/>
        <path class="cls-2" d="M23.8,22.25c-1.69-.59-3.06-1.75-3.92-3.22-.86,1.47-2.23,2.63-3.92,3.22l-.66-1.89c2.06-.72,3.46-2.6,3.58-4.78h2c.12,2.18,1.52,4.05,3.58,4.78l-.66,1.89Z"/>
        <path class="cls-2" d="M28.68,12.6l-1.73-1c.26-.45.41-.97.43-1.49l2,.08c-.04.84-.28,1.68-.7,2.41Z"/>
        <path class="cls-2" d="M11.08,12.6c-.42-.73-.66-1.56-.7-2.41l2-.08c.02.52.17,1.04.43,1.49l-1.73,1Z"/>
        <path class="cls-2" d="M8.44,19.1l-1.26-1.55c.3-.25.63-.47.97-.66l.97,1.75c-.24.13-.47.29-.68.46Z"/>
        <path class="cls-2" d="M31.32,19.1c-.21-.17-.44-.33-.68-.46l.97-1.75c.34.19.67.41.97.66l-1.26,1.55Z"/>
        <path class="cls-2" d="M11.38,29.39c-1.14,0-2.28-.3-3.27-.86l.98-1.74c.7.39,1.53.57,2.29.6v2h0Z"/>
        <path class="cls-2" d="M28.38,29.39h0v-2h0c.8,0,1.59-.21,2.29-.6l.98,1.74c-1,.56-2.13.86-3.27.86Z"/>
      </g>
      <rect class="cls-1" width="39.76" height="39.76"/>
    </g>
  </g>
</svg>