<?xml version="1.0" encoding="UTF-8"?>
<svg id="Layer_1" data-name="Layer 1" xmlns="http://www.w3.org/2000/svg" viewBox="0 0 100 100">
  <defs>
    <style>
      .cls-1 {
        fill: #808285;
        stroke-width: 0px;
      }
    </style>
  </defs>
  <path class="cls-1" d="M45.27,54.73c-.94,0-1.66,0-2.37,0-11.27,0-22.53,0-33.8,0-.73,0-1.47,0-2.18-.15-2.24-.49-3.72-2.36-3.72-4.58,0-2.21,1.51-4.08,3.75-4.55.71-.15,1.45-.14,2.18-.14,11.27,0,22.53,0,33.8,0,.72,0,1.43,0,2.33,0,0-.9,0-1.61,0-2.33,0-11.51-.02-23.03.01-34.54,0-3.96,3.53-6.39,6.79-4.72,2.03,1.04,2.65,2.84,2.64,5.02-.03,11.39-.01,22.78-.01,34.18,0,.72,0,1.44,0,2.38.86,0,1.57,0,2.28,0,11.51,0,23.02-.02,34.53,0,3.98,0,6.41,3.47,4.78,6.75-1.02,2.04-2.81,2.69-4.99,2.69-11.39-.02-22.78-.01-34.16-.01-.72,0-1.45,0-2.43,0v2.23c0,11.21,0,22.42,0,33.63,0,.55.02,1.1-.02,1.64-.2,2.69-2.2,4.6-4.76,4.57-2.47-.03-4.42-1.92-4.63-4.52-.04-.54-.02-1.1-.02-1.64,0-11.15,0-22.3,0-33.45v-2.47Z"/>
</svg>