<?xml version="1.0" encoding="UTF-8"?>
<svg id="Layer_2" data-name="Layer 2" xmlns="http://www.w3.org/2000/svg" viewBox="0 0 64.67 64.67">
  <defs>
    <style>
      .cls-1 {
        fill: #70348f;
      }

      .cls-2 {
        fill: #fff;
      }
    </style>
  </defs>
  <g id="text">
    <g>
      <g>
        <circle class="cls-2" cx="32.33" cy="32.33" r="30.33"/>
        <path class="cls-1" d="M32.33,64.67C14.5,64.67,0,50.16,0,32.33S14.5,0,32.33,0s32.33,14.5,32.33,32.33-14.5,32.33-32.33,32.33ZM32.33,4c-15.62,0-28.33,12.71-28.33,28.33s12.71,28.33,28.33,28.33,28.33-12.71,28.33-28.33S47.96,4,32.33,4Z"/>
      </g>
      <g>
        <path class="cls-1" d="M29.93,31.36c-.26,0-.51-.1-.71-.29l-9.6-9.6c-.39-.39-.39-1.02,0-1.41.39-.39,1.02-.39,1.41,0l9.6,9.6c.39.39.39,1.02,0,1.41-.2.2-.45.29-.71.29Z"/>
        <path class="cls-1" d="M34.73,31.36c-.26,0-.51-.1-.71-.29-.39-.39-.39-1.02,0-1.41l9.6-9.6c.39-.39,1.02-.39,1.41,0,.39.39.39,1.02,0,1.41l-9.6,9.6c-.2.2-.45.29-.71.29Z"/>
        <path class="cls-1" d="M32.33,36.15c-7.29,0-12.99-3.07-12.99-7s5.71-7,12.99-7,12.99,3.07,12.99,7-5.71,7-12.99,7ZM32.33,24.16c-6.48,0-10.99,2.63-10.99,5s4.52,5,10.99,5,10.99-2.63,10.99-5-4.52-5-10.99-5Z"/>
        <path class="cls-1" d="M26.34,44.91c-.55,0-1-.45-1-1v-9.48c0-.55.45-1,1-1s1,.45,1,1v9.48c0,.55-.45,1-1,1Z"/>
        <path class="cls-1" d="M32.33,45.75c-.55,0-1-.45-1-1v-9.6c0-.55.45-1,1-1s1,.45,1,1v9.6c0,.55-.45,1-1,1Z"/>
        <path class="cls-1" d="M38.33,44.91c-.55,0-1-.45-1-1v-9.48c0-.55.45-1,1-1s1,.45,1,1v9.48c0,.55-.45,1-1,1Z"/>
        <path class="cls-1" d="M32.33,45.75c-7.29,0-12.99-3.07-12.99-7v-9.6c0-.55.45-1,1-1s1,.45,1,1v9.6c0,2.36,4.52,5,10.99,5s10.99-2.63,10.99-5v-9.6c0-.55.45-1,1-1s1,.45,1,1v9.6c0,3.92-5.71,7-12.99,7Z"/>
      </g>
    </g>
  </g>
</svg>