<?xml version="1.0" encoding="UTF-8"?>
<svg id="Layer_2" data-name="Layer 2" xmlns="http://www.w3.org/2000/svg" viewBox="0 0 19.19 19.19">
  <defs>
    <style>
      .cls-1 {
        fill: #00a1d8;
      }
    </style>
  </defs>
  <g id="text">
    <g>
      <path class="cls-1" d="M9.59,19.19c-4.46,0-8.47-3.14-9.4-7.68-.51-2.51-.01-5.07,1.4-7.21C3.01,2.16,5.17.7,7.68.19c2.3-.47,4.68-.08,6.71,1.09.42.24.56.77.32,1.19-.24.42-.77.56-1.19.32-1.66-.96-3.61-1.28-5.49-.89-2.05.42-3.82,1.61-4.98,3.36-1.16,1.75-1.56,3.84-1.14,5.9.86,4.24,5.02,6.99,9.26,6.12,2.05-.42,3.82-1.61,4.98-3.36,1.16-1.75,1.56-3.84,1.14-5.9-.1-.47.21-.93.68-1.03.47-.09.93.21,1.03.68.51,2.51.01,5.07-1.4,7.21-1.41,2.14-3.57,3.6-6.09,4.11-.64.13-1.29.19-1.92.19Z"/>
      <path class="cls-1" d="M9.59,12.21c-.22,0-.45-.09-.62-.26l-2.62-2.62c-.34-.34-.34-.89,0-1.23.34-.34.89-.34,1.23,0l2,2L17.7,2c.34-.34.89-.34,1.23,0,.34.34.34.89,0,1.23l-8.72,8.72c-.17.17-.39.26-.62.26Z"/>
    </g>
  </g>
</svg>